<svg xmlns="http://www.w3.org/2000/svg" viewBox="0 0 128.34 159.57">
  <path fill="#f49b1d" d="M40.86 158.1c-15.4-4.56-31.53-16.83-37.6-28.62-1.6-3.09-1.79-4.33-.91-5.73a7.53 7.53 0 001.12-3.2c0-.78.63-1.65 1.4-1.95 1.14-.44.86-2.13-1.52-9.03C1.48 104.16.36 98.78.26 94.75c-.14-5.5.28-7.1 3.22-12.32 1.86-3.3 3.9-6.33 4.54-6.72.85-.53.6-2.28-.89-6.5-1.57-4.45-2.06-8.37-2.1-16.96l-.06-11.17 4.1-5.83c3.26-4.65 5.44-6.52 10.82-9.29l6.74-3.47 1.9 2.47c1.58 2.05 1.8 3.5 1.29 8.61-.46 4.68-.24 6.68.93 8.35 1.5 2.13 1.58 2.14 3.38.34 4.05-4.08 9.28-11.1 11.74-15.73 3.02-5.7 3.39-12.8.99-19.1-3.02-7.93-3.02-7.88.2-7.09 4.92 1.2 16.64 8.7 22.07 14.13 7.77 7.76 9.87 16.17 6.84 27.46-.82 3.02-1.48 5.64-1.5 5.82 0 .18 1.81-1.22 4.03-3.12a32.67 32.67 0 019.6-5.2c5.37-1.7 5.63-1.69 7.44.12 1.18 1.2 2.22 4.4 2.85 8.8 1.27 9.03 5.03 16.33 15.72 30.58 13.63 18.16 16.25 26.06 12.94 39-3.19 12.42-11.44 22.35-25.38 30.52-14 8.2-20.23 9.7-45.7 10.99-6.81.34-10.49.02-15.1-1.35zM49 126.72c2.08-2.08-6.86-14.95-9.33-13.43-1.58.98-4.52 11.34-3.77 13.3.48 1.25 1.8 1.48 6.57 1.13 3.28-.23 6.22-.68 6.53-1zm34.57-36.9c-7.88-16.52-10.1-23.6-10.1-32.24v-7.01l-7 11.64c-3.84 6.4-7 12.52-7 13.6s1.24 2.93 2.76 4.12c1.51 1.19 5.12 4.37 8.03 7.07 2.9 2.7 5.54 4.92 5.86 4.92.33 0 3.29 2.5 6.59 5.55s6.17 5.37 6.39 5.16c.22-.22-2.27-5.98-5.53-12.8z"/>
  <path fill="#c1348e" d="M40.86 158.1c-15.4-4.56-31.53-16.83-37.6-28.62-1.6-3.09-1.79-4.33-.91-5.73a7.53 7.53 0 001.12-3.2c0-.78.66-1.66 1.47-1.97 1.24-.48 1.08-1.6-1.01-7.17A75.56 75.56 0 01.5 98.16c-.9-6.35-.8-6.95 2.1-12.7 4.9-9.76 5.02-9.8 11.15-3.75 5.32 5.26 7.42 6.48 6.36 3.72-.32-.83-.2-1.5.26-1.5 2.17 0 19.89 6.3 22.1 7.87 1.37.97 5.42 2.55 9 3.52 3.57.97 9.77 2.86 13.78 4.22 4 1.36 7.72 2.2 8.25 1.87.53-.33.97-2.35.97-4.48 0-2.14.46-4.17 1.03-4.52.57-.35 3.77 1.9 7.11 5 3.35 3.09 6.26 5.44 6.48 5.23.21-.22-2.27-5.98-5.53-12.8-7.88-16.53-10.1-23.6-10.1-32.26v-7.01L66.88 61.5c-3.62 6-6.98 11.9-7.44 13.1-1.4 3.57-4.13 1.88-16.18-10.05-15.92-15.76-21.09-26.17-17.4-35.01 2.6-6.22 4.17-4.16 3.8 4.98-.25 5.9.05 8.41 1.18 9.9 1.34 1.78 1.68 1.84 2.98.5 2.93-2.98 12.84-17.49 14.23-20.82 1.99-4.75 1.78-11.22-.55-17.35-1.09-2.86-1.75-5.43-1.47-5.71.68-.68 11.7 4.9 17.9 9.06 10.53 7.06 15.06 17.42 12.68 28.97a78.67 78.67 0 01-1.88 7.65c-.38.99 1.13.18 3.58-1.92a33.4 33.4 0 019.8-5.37c5.37-1.7 5.63-1.69 7.44.12 1.18 1.2 2.22 4.4 2.85 8.8 1.27 9.03 5.03 16.33 15.72 30.58 13.63 18.16 16.25 26.06 12.94 39-3.19 12.42-11.44 22.35-25.38 30.52-14 8.2-20.23 9.7-45.7 10.99-6.81.34-10.49.02-15.1-1.35zM49 126.72c2.08-2.08-6.86-14.95-9.33-13.43-1.58.98-4.52 11.34-3.77 13.3.48 1.25 1.8 1.48 6.57 1.13 3.28-.23 6.22-.68 6.53-1z"/>
  <path fill="#d13720" d="M43.46 157.51c-4.86-1.07-18.53-7.38-17.72-8.19.17-.17 3.66.57 7.77 1.63 8.35 2.17 13.96 2.53 13.96.88 0-.6.95-2.43 2.1-4.06 3.4-4.76 6.9-11.8 6.9-13.84 0-1.04 2.21-4.07 4.92-6.74l4.93-4.85-5.91 2.93c-6.62 3.28-7.66 3-10.76-2.9-2-3.81-8.77-11.44-10.15-11.44-1.56 0-3.43 4.05-5.05 11-1.35 5.77-1.8 6.51-4 6.63-5.18.28-13.32-3.8-19.01-9.55C5.18 112.71 2 105.78.9 96.02c-.6-5.34-.38-6.6 2.04-11.3 4.6-8.94 4.76-8.99 10.8-3 5.33 5.25 7.43 6.47 6.37 3.7-.32-.82-.2-1.5.26-1.5 2.17 0 19.89 6.32 22.1 7.88 1.37.97 5.42 2.55 9 3.52 3.57.97 9.82 2.88 13.87 4.25 4.06 1.38 7.74 2.13 8.19 1.68.44-.45 1.01-2.62 1.27-4.82s.37 0 .24 4.9c-.23 8.89.65 8.99 1.96.23.4-2.67 1.22-4.63 1.94-4.63 2.22 0 10.59 9.9 13.2 15.6a26.72 26.72 0 012.6 11.47c.06 6.92 1.19 7.65 2.77 1.77.82-3.03.82-5.79.02-10.25l-1.1-6.1 6.02-5.59c5.06-4.7 6.02-6.14 6.04-9 .02-2.5.98-4.43 3.6-7.25l3.58-3.84 2.88 3.34c13.56 15.73 10.98 36.64-6.48 52.59-10.55 9.62-28.47 17.95-36.17 16.8-2.43-.37-6.45 0-9.96.92-6.86 1.79-14.7 1.83-22.48.12zm26.13-38.33c1.25-1.59 1.21-1.63-.37-.38-.97.75-1.75 1.54-1.75 1.75 0 .82.82.3 2.12-1.37zM55.95 75.92c-1.1-.42-6.96-5.66-13-11.65-15.6-15.48-20.76-25.96-17.1-34.72 2.35-5.62 3.9-3.71 3.08 3.83-.51 4.82-.3 6.98.96 9.4.9 1.73 2.04 3.15 2.54 3.15 1.27 0 12.58-15.62 15.02-20.74 2.55-5.37 2.57-11.8.04-18.44C46.4 3.89 45.76 1.3 46.05 1c.89-.89 14.76 6.66 19.13 10.4 10.18 8.72 13.07 18.22 9.33 30.67-2.07 6.89-8.9 20.84-13.3 27.14a21.15 21.15 0 00-2.59 5.12c-.51 1.84-1.08 2.17-2.67 1.58zm40.14-22.97c-1.97-4.93-2.2-11.38-.37-10.78 1.05.35 3.09 13.55 2.24 14.55-.13.16-.97-1.54-1.87-3.77z"/>
  <path fill="#752481" d="M43.46 157.51c-4.86-1.07-18.53-7.38-17.72-8.19.17-.17 3.66.57 7.77 1.63 8.35 2.17 13.96 2.53 13.96.88 0-.6.95-2.43 2.1-4.06 3.37-4.73 6.9-11.79 6.9-13.8 0-1.02 3.4-5.26 7.54-9.43 8.1-8.12 11.81-14.66 13-22.86.4-2.77 1.2-4.75 1.93-4.75 2.22 0 10.59 9.9 13.2 15.6a26.72 26.72 0 012.6 11.47c.06 6.92 1.19 7.65 2.77 1.77.82-3.03.82-5.79.02-10.25l-1.1-6.1 6.02-5.59c5.06-4.7 6.02-6.14 6.04-9 .02-2.5.98-4.43 3.6-7.25l3.58-3.84 2.88 3.34c13.56 15.73 10.98 36.64-6.48 52.59-10.55 9.62-28.47 17.95-36.17 16.8-2.43-.37-6.45 0-9.96.92-6.86 1.79-14.7 1.83-22.48.12zm-12.97-33.25c.02-4.38 3.25-18.94 4.47-20.16.67-.67 4.5 2.87 4.5 4.15 0 .56-.66 1.75-1.47 2.65-.81.9-2.29 5.18-3.27 9.5-2.1 9.23-4.27 11.2-4.23 3.86zm24.44-50.4c-.36-.58 1.59-4.74 4.33-9.25C69.74 47.41 73.45 37.75 73.5 27.5c.04-7.16 1.69-5.7 2.64 2.33 1 8.48-3.61 20.69-15.05 39.83-3.06 5.11-4.85 6.34-6.16 4.21zm41.16-20.91c-1.97-4.93-2.2-11.38-.37-10.78 1.05.35 3.09 13.55 2.24 14.55-.13.16-.97-1.54-1.87-3.77zM26.6 39.83c-1.43-4.1-1.42-7.16.04-10.36 2.1-4.61 2.93-2.69 2.24 5.2-.37 4.27-.78 7.9-.92 8.06-.14.16-.75-1.14-1.37-2.9z"/>
  <path fill="#61295e" d="M42.09 156.4c-7.2-1.97-7.71-3.3-.91-2.33 3.4.48 9.08.4 13.79-.22 23.96-3.1 38.03-20.22 33.6-40.89-.63-2.93-.98-5.49-.79-5.68.2-.2 1.58 1.87 3.06 4.6 5.3 9.73 3.14 24.25-4.82 32.44a44.67 44.67 0 01-43.93 12.09zm38.38-2.89c0-.78 3.03-3.1 6.75-5.16 24.2-13.42 33.19-24.85 35.19-44.76l.71-7.16 1.68 3.71c3.05 6.8 1.45 18.37-3.78 27.29-5.7 9.72-20.58 21.2-33.03 25.49-6.94 2.39-7.52 2.43-7.52.6zm-49.98-29.83c.02-3.94 3.33-18.44 4.47-19.58.73-.73 4.5 2.92 4.5 4.36 0 .67-.66 1.77-1.47 2.44-.8.68-2.23 4.78-3.17 9.13-1.9 8.89-4.37 10.96-4.33 3.65zm24.44-49.82c-.36-.58 1.59-4.74 4.33-9.25 10.45-17.16 14.16-26.8 14.27-37.12.06-5.24.21-5.72 1.14-3.56.59 1.37 1.06 5.42 1.05 9-.02 9.22-3.45 17.6-15.85 38.74-1.94 3.3-3.76 4.1-4.94 2.2zm40.09-26.58c-.37-1.46-.2-3.12.4-3.7.73-.74 1.05.05 1.05 2.65 0 4.35-.53 4.73-1.45 1.05zm-68.44-7.45c-1.42-4.1-1.41-7.16.05-10.36 2.1-4.61 2.93-2.69 2.24 5.2-.37 4.27-.78 7.9-.92 8.06-.14.16-.75-1.14-1.37-2.9z"/>
</svg>