<?xml version="1.0" encoding="UTF-8" standalone="no"?>
<!-- Created with Inkscape (http://www.inkscape.org/) -->

<svg
   xmlns:dc="http://purl.org/dc/elements/1.1/"
   xmlns:cc="http://creativecommons.org/ns#"
   xmlns:rdf="http://www.w3.org/1999/02/22-rdf-syntax-ns#"
   xmlns:svg="http://www.w3.org/2000/svg"
   xmlns="http://www.w3.org/2000/svg"
   xmlns:sodipodi="http://sodipodi.sourceforge.net/DTD/sodipodi-0.dtd"
   xmlns:inkscape="http://www.inkscape.org/namespaces/inkscape"
   version="1.1"
   id="svg39"
   width="128.3385"
   height="159.56677">
  <metadata
     id="metadata45">
    <rdf:RDF>
      <cc:Work
         rdf:about="">
        <dc:format>image/svg+xml</dc:format>
        <dc:type
           rdf:resource="http://purl.org/dc/dcmitype/StillImage" />
      </cc:Work>
    </rdf:RDF>
  </metadata>
  <defs
     id="defs43" />
  <sodipodi:namedview
     pagecolor="#ffffff"
     bordercolor="#666666"
     borderopacity="1"
     objecttolerance="10"
     gridtolerance="10"
     guidetolerance="10"
     inkscape:pageopacity="0"
     inkscape:pageshadow="2"
     inkscape:window-width="640"
     inkscape:window-height="480"
     id="namedview41" />
  <inkscape:clipboard
     style="font-variant-east_asian:normal;opacity:1;vector-effect:none;fill:#61295e;fill-opacity:1;stroke-width:0.99999995;stroke-linecap:butt;stroke-linejoin:miter;stroke-miterlimit:4;stroke-dasharray:none;stroke-dashoffset:0;stroke-opacity:1"
     min="-284.63062,-0.7303941"
     max="-156.29212,158.83638" />
  <g
     transform="matrix(3.7795276,0,0,3.7795276,-1038.3186,-280.23623)"
     id="g21">
    <path
       inkscape:connector-curvature="0"
       id="path31"
       d="m 285.53365,115.97449 c -4.07451,-1.20385 -8.34236,-4.45104 -9.94919,-7.56982 -0.42106,-0.81725 -0.47343,-1.14637 -0.24149,-1.51776 0.16289,-0.26082 0.29616,-0.6417 0.29616,-0.84638 0,-0.20469 0.1672,-0.43632 0.37156,-0.51474 0.30182,-0.11582 0.22619,-0.56435 -0.40288,-2.38943 -0.49343,-1.43153 -0.78995,-2.8542 -0.81714,-3.920619 -0.0371,-1.455793 0.0738,-1.880526 0.85187,-3.261278 0.49201,-0.873125 1.03248,-1.673074 1.20105,-1.777667 0.22384,-0.138885 0.16053,-0.602657 -0.23479,-1.719791 -0.41621,-1.176204 -0.54492,-2.212693 -0.55704,-4.485974 l -0.0158,-2.956349 1.08314,-1.541568 c 0.86461,-1.230544 1.44288,-1.726596 2.86614,-2.45865 l 1.783,-0.917083 0.50173,0.652499 c 0.41716,0.542512 0.47468,0.926724 0.34122,2.279324 -0.12195,1.235942 -0.0629,1.766239 0.24589,2.207062 0.39562,0.56483 0.41936,0.567216 0.89369,0.08983 1.07169,-1.078592 2.45721,-2.933941 3.10772,-4.161562 0.79886,-1.507579 0.89581,-3.38517 0.26096,-5.053822 -0.79837,-2.098441 -0.79882,-2.082892 0.0541,-1.874927 1.30247,0.31758 4.40217,2.301651 5.84002,3.738102 2.0552,2.053208 2.60916,4.279394 1.8078,7.26495 -0.21482,0.800365 -0.39201,1.494252 -0.39373,1.541971 -0.002,0.04772 0.47688,-0.324123 1.06359,-0.826318 0.5867,-0.502194 1.72949,-1.121545 2.53953,-1.376335 1.42217,-0.447327 1.48983,-0.446207 1.96801,0.03257 0.31458,0.314981 0.58974,1.164229 0.75441,2.328431 0.33796,2.38937 1.33114,4.321083 4.15905,8.089266 3.60621,4.80527 4.30029,6.896928 3.42387,10.317948 -0.84216,3.28726 -3.02706,5.91522 -6.71472,8.07634 -3.70429,2.17086 -5.35101,2.56693 -12.09167,2.90831 -1.80133,0.0912 -2.77454,0.004 -3.99611,-0.35653 z m 2.15133,-8.29747 c 0.55025,-0.55026 -1.81645,-3.95582 -2.46888,-3.55259 -0.41871,0.25877 -1.19572,2.99976 -0.9971,3.51736 0.12694,0.3308 0.47692,0.39127 1.73711,0.30012 0.86797,-0.0628 1.64596,-0.18199 1.72887,-0.26489 z m 9.14652,-9.762214 c -2.08513,-4.372319 -2.67154,-6.245261 -2.67154,-8.532699 v -1.854753 l -1.85208,3.079819 c -1.01865,1.693902 -1.85208,3.313467 -1.85208,3.59904 0,0.28557 0.32742,0.776483 0.7276,1.090922 0.40018,0.314436 1.3563,1.156515 2.12471,1.871287 0.7684,0.714769 1.46686,1.299583 1.55213,1.299583 0.0853,0 0.86913,0.661119 1.7419,1.469157 0.87278,0.808038 1.63373,1.422298 1.691,1.365028 0.0573,-0.0573 -0.60047,-1.581592 -1.46164,-3.387384 z"
       style="fill:#f49b1d;stroke-width:0.26458332" />
    <path
       inkscape:connector-curvature="0"
       id="path29"
       d="m 285.53365,115.97449 c -4.07451,-1.20385 -8.34236,-4.45104 -9.94919,-7.56982 -0.42106,-0.81725 -0.47343,-1.14637 -0.24149,-1.51776 0.16289,-0.26082 0.29616,-0.6417 0.29616,-0.84638 0,-0.20469 0.17516,-0.43937 0.38925,-0.52153 0.32803,-0.12588 0.28594,-0.42381 -0.26768,-1.89466 -0.36131,-0.95991 -0.76924,-2.53835 -0.90651,-3.50765 -0.23785,-1.679544 -0.21181,-1.837415 0.55407,-3.359174 1.2996,-2.582188 1.33081,-2.592681 2.95138,-0.992249 1.40783,1.390346 1.96246,1.714516 1.68173,0.982946 -0.0838,-0.218281 -0.0527,-0.396875 0.0689,-0.396875 0.57474,0 5.26287,1.66932 5.84757,2.082165 0.3638,0.256873 1.43536,0.676283 2.38125,0.932021 0.94589,0.255739 2.58679,0.758406 3.64646,1.117046 1.05966,0.35864 2.04193,0.58083 2.18281,0.49376 0.14088,-0.0871 0.25615,-0.6205 0.25615,-1.185409 0,-0.564906 0.12281,-1.103008 0.27292,-1.195781 0.15012,-0.09277 0.99712,0.501787 1.88224,1.321249 0.88511,0.819461 1.65616,1.443071 1.71343,1.385801 0.0573,-0.0573 -0.60047,-1.581592 -1.46164,-3.387384 -2.08553,-4.37315 -2.67154,-6.245121 -2.67154,-8.534046 v -1.856099 l -1.74483,2.891984 c -0.95965,1.590592 -1.84609,3.150438 -1.96985,3.466324 -0.37047,0.945586 -1.09089,0.498062 -4.2813,-2.659554 -4.2107,-4.167416 -5.57896,-6.922038 -4.60093,-9.262786 0.68677,-1.643666 1.10088,-1.09857 1.00176,1.318621 -0.0641,1.562253 0.0156,2.225855 0.31456,2.621046 0.35531,0.469659 0.44403,0.484536 0.78887,0.132292 0.77376,-0.79038 3.39563,-4.628977 3.76417,-5.510999 0.52527,-1.257168 0.4711,-2.968379 -0.14533,-4.590705 -0.28759,-0.756872 -0.46236,-1.436661 -0.38838,-1.510643 0.17902,-0.179023 3.09344,1.296659 4.73674,2.398396 2.78416,1.866611 3.9841,4.6089 3.35323,7.663301 -0.17881,0.8657 -0.40297,1.777106 -0.49814,2.025346 -0.10005,0.260971 0.29948,0.04701 0.94722,-0.507264 0.61614,-0.527235 1.78302,-1.167074 2.59306,-1.421864 1.42217,-0.447327 1.48983,-0.446207 1.96801,0.03257 0.31458,0.314981 0.58974,1.164229 0.75441,2.328431 0.33796,2.38937 1.33114,4.321083 4.15905,8.089266 3.60621,4.80527 4.30029,6.896927 3.42387,10.317947 -0.84216,3.28726 -3.02706,5.91522 -6.71472,8.07634 -3.70429,2.17086 -5.35101,2.56693 -12.09167,2.90831 -1.80133,0.0912 -2.77454,0.004 -3.99611,-0.35653 z m 2.15133,-8.29747 c 0.55025,-0.55026 -1.81645,-3.95582 -2.46888,-3.55259 -0.41871,0.25877 -1.19572,2.99976 -0.9971,3.51736 0.12694,0.3308 0.47692,0.39127 1.73711,0.30012 0.86797,-0.0628 1.64596,-0.18199 1.72887,-0.26489 z"
       style="fill:#c1348e;stroke-width:0.26458332" />
    <path
       inkscape:connector-curvature="0"
       id="path27"
       d="m 286.22031,115.82072 c -1.28561,-0.28241 -4.90198,-1.95344 -4.68883,-2.16659 0.0445,-0.0445 0.96938,0.14975 2.05524,0.43172 2.21111,0.57417 3.69408,0.66724 3.69408,0.23185 0,-0.15944 0.25145,-0.64301 0.55877,-1.07461 0.89617,-1.25855 1.82248,-3.1198 1.82248,-3.66193 0,-0.27529 0.58632,-1.07767 1.30295,-1.78308 l 1.30294,-1.28256 -1.56315,0.77477 c -1.75235,0.86854 -2.02618,0.79453 -2.84662,-0.76949 -0.52781,-1.00618 -2.3193,-3.02571 -2.68404,-3.02571 -0.41517,0 -0.90839,1.07248 -1.33849,2.91041 -0.35728,1.52679 -0.47605,1.72376 -1.05833,1.75509 -1.37029,0.0737 -3.52207,-1.00676 -5.02989,-2.52572 -1.65548,-1.6677 -2.49581,-3.50126 -2.78791,-6.083079 -0.16007,-1.414825 -0.0997,-1.748936 0.54066,-2.991882 1.21846,-2.365065 1.25813,-2.376091 2.85947,-0.794642 1.40783,1.390346 1.96246,1.714516 1.68173,0.982946 -0.0838,-0.218281 -0.0527,-0.396875 0.0689,-0.396875 0.57474,0 5.26287,1.66932 5.84757,2.082165 0.3638,0.256873 1.43536,0.676283 2.38125,0.932021 0.94589,0.255739 2.59819,0.762346 3.67179,1.125796 1.0736,0.36345 2.04791,0.5629 2.16513,0.44323 0.11722,-0.11968 0.26883,-0.69384 0.3369,-1.27592 0.0681,-0.582084 0.0964,0.0016 0.063,1.29733 -0.0607,2.35157 0.17105,2.37861 0.51867,0.0605 0.10584,-0.70582 0.324,-1.225569 0.51441,-1.225569 0.58596,0 2.801,2.618389 3.49214,4.128049 0.46747,1.02108 0.67533,1.94098 0.68563,3.03426 0.0173,1.83298 0.31566,2.02404 0.73411,0.47003 0.21636,-0.80349 0.21792,-1.53253 0.006,-2.71198 l -0.29011,-1.61307 1.59191,-1.48022 c 1.33753,-1.2437 1.59304,-1.624194 1.59906,-2.381249 0.005,-0.661075 0.25885,-1.171845 0.95227,-1.917949 l 0.94511,-1.016923 0.76274,0.884632 c 3.58783,4.161209 2.90591,9.693349 -1.71496,13.912719 -2.78999,2.54756 -7.53218,4.75036 -9.56974,4.44524 -0.64112,-0.096 -1.70734,0.003 -2.63527,0.24469 -1.81329,0.47231 -3.89085,0.48333 -5.94738,0.0316 z m 6.91507,-10.14282 c 0.32911,-0.41964 0.31975,-0.429 -0.0999,-0.0999 -0.25466,0.19973 -0.46302,0.40808 -0.46302,0.46303 0,0.21776 0.21728,0.0776 0.56292,-0.36313 z m -3.61009,-11.445549 c -0.2935,-0.109768 -1.84131,-1.496978 -3.43958,-3.082687 -4.127,-4.094555 -5.49279,-6.867174 -4.52444,-9.184773 0.62206,-1.488793 1.02994,-0.982396 0.81622,1.013347 -0.13661,1.27563 -0.0786,1.845001 0.25319,2.486689 0.23671,0.457734 0.53836,0.832244 0.67035,0.832244 0.33669,0 3.33046,-4.132529 3.97516,-5.48722 0.6755,-1.41941 0.6793,-3.119951 0.0109,-4.879067 -0.28759,-0.756872 -0.45863,-1.440388 -0.3801,-1.518926 0.23344,-0.233433 3.905,1.764508 5.06107,2.754061 2.69358,2.305601 3.45859,4.819786 2.46852,8.112712 -0.54796,1.822469 -2.35707,5.515552 -3.51769,7.180946 -0.28309,0.406202 -0.59238,1.01613 -0.68733,1.355397 -0.13608,0.486278 -0.28558,0.574606 -0.70626,0.417277 z m 10.62092,-6.077474 c -0.52184,-1.304195 -0.58124,-3.010104 -0.0993,-2.850868 0.27767,0.09174 0.81758,3.585678 0.59469,3.84841 -0.036,0.04242 -0.25892,-0.406476 -0.49542,-0.997542 z"
       style="fill:#d13720;stroke-width:0.26458332" />
    <path
       inkscape:connector-curvature="0"
       id="path25"
       d="m 286.22031,115.82072 c -1.28561,-0.28241 -4.90198,-1.95344 -4.68883,-2.16659 0.0445,-0.0445 0.96938,0.14975 2.05524,0.43172 2.21111,0.57417 3.69408,0.66724 3.69408,0.23185 0,-0.15944 0.25145,-0.64301 0.55877,-1.07461 0.89007,-1.24998 1.82248,-3.1184 1.82248,-3.65199 0,-0.26981 0.89823,-1.39173 1.99608,-2.49314 2.14198,-2.14894 3.12521,-3.87886 3.43877,-6.05027 0.1057,-0.732 0.31954,-1.256769 0.51211,-1.256769 0.58596,0 2.801,2.618389 3.49214,4.128049 0.46747,1.02108 0.67533,1.94098 0.68563,3.03426 0.0173,1.83298 0.31566,2.02404 0.73411,0.47003 0.21636,-0.80349 0.21792,-1.53253 0.006,-2.71198 l -0.29011,-1.61307 1.59191,-1.48022 c 1.33753,-1.2437 1.59304,-1.624194 1.59906,-2.381249 0.005,-0.661075 0.25885,-1.171845 0.95227,-1.917949 l 0.94511,-1.016923 0.76274,0.884632 c 3.58783,4.161209 2.90591,9.693349 -1.71496,13.912719 -2.78999,2.54756 -7.53218,4.75036 -9.56974,4.44524 -0.64112,-0.096 -1.70734,0.003 -2.63527,0.24469 -1.81329,0.47231 -3.89085,0.48333 -5.94738,0.0316 z m -3.4312,-8.79786 c 0.006,-1.15794 0.85904,-5.0104 1.18129,-5.33266 0.17723,-0.17722 1.19373,0.75729 1.19373,1.09746 0,0.14789 -0.17592,0.46328 -0.39094,0.70087 -0.21502,0.23759 -0.60457,1.36901 -0.86566,2.51425 -0.55656,2.44125 -1.12788,2.96233 -1.11842,1.02008 z m 6.46596,-13.333707 c -0.0955,-0.154514 0.4202,-1.255842 1.14598,-2.447395 2.77343,-4.553257 3.75337,-7.108145 3.76696,-9.821255 0.01,-1.896948 0.44753,-1.511469 0.69944,0.615538 0.26555,2.242145 -0.95556,5.472928 -3.98274,10.537481 -0.80892,1.353344 -1.2824,1.677479 -1.62964,1.115631 z m 10.89114,-5.534276 c -0.52184,-1.304195 -0.58124,-3.010104 -0.0993,-2.850868 0.27767,0.09174 0.81758,3.585678 0.59469,3.84841 -0.036,0.04242 -0.25892,-0.406476 -0.49542,-0.997542 z m -18.39107,-3.471182 c -0.37736,-1.082485 -0.37384,-1.893135 0.0119,-2.739699 0.55649,-1.221362 0.77663,-0.711513 0.59439,1.376613 -0.0984,1.127786 -0.20869,2.086364 -0.24503,2.130173 -0.0363,0.04381 -0.19889,-0.301381 -0.36123,-0.767087 z"
       style="fill:#752481;stroke-width:0.26458332" />
    <path
       inkscape:connector-curvature="0"
       id="path23"
       d="m 285.8575,115.52865 c -1.90397,-0.52287 -2.04004,-0.87314 -0.24034,-0.61869 0.90161,0.12747 2.40179,0.10383 3.64801,-0.0575 6.3397,-0.82061 10.06288,-5.35116 8.8904,-10.81826 -0.16633,-0.77556 -0.25966,-1.45285 -0.20741,-1.50511 0.0523,-0.0523 0.41628,0.49528 0.80895,1.21674 1.40192,2.57578 0.83103,6.41643 -1.27602,8.58442 -3.03208,3.11978 -7.46657,4.33998 -11.62359,3.19838 z m 10.15455,-0.766 c 0,-0.20576 0.80367,-0.81991 1.78593,-1.36478 6.4051,-3.55297 8.78178,-6.57661 9.31037,-11.84475 l 0.19008,-1.89449 0.44223,0.98369 c 0.80764,1.79654 0.38379,4.85883 -0.99912,7.2186 -1.50775,2.57279 -5.44475,5.61117 -8.7395,6.74473 -1.83627,0.63178 -1.98999,0.6439 -1.98999,0.157 z m -13.22294,-7.89412 c 0.006,-1.04154 0.88095,-4.87798 1.18129,-5.17833 0.19321,-0.19321 1.19373,0.77237 1.19373,1.15204 0,0.17791 -0.17533,0.46898 -0.38963,0.64683 -0.2143,0.17785 -0.59176,1.264 -0.83881,2.41365 -0.50547,2.35223 -1.1573,2.90129 -1.14658,0.96581 z m 6.46596,-13.179377 c -0.0955,-0.154514 0.4202,-1.255842 1.14598,-2.447395 2.7659,-4.540882 3.74719,-7.093418 3.77569,-9.821255 0.0145,-1.386505 0.0556,-1.515355 0.30103,-0.944165 0.15635,0.363802 0.28191,1.435365 0.27903,2.38125 -0.007,2.439736 -0.91416,4.655606 -4.1947,10.250932 -0.51182,0.872956 -0.99399,1.087154 -1.30703,0.580633 z m 10.60747,-7.033377 c -0.097,-0.386317 -0.0506,-0.824797 0.10361,-0.978959 0.19592,-0.195916 0.27923,0.01286 0.27923,0.699729 0,1.152279 -0.13839,1.253212 -0.38284,0.27923 z m -18.1074,-1.972081 c -0.37736,-1.082485 -0.37384,-1.893135 0.0119,-2.739699 0.55649,-1.221362 0.77663,-0.711513 0.59439,1.376613 -0.0984,1.127786 -0.20869,2.086364 -0.24503,2.130173 -0.0363,0.04381 -0.19889,-0.301381 -0.36123,-0.767087 z"
       style="fill:#61295e;stroke-width:0.26458332" />
  </g>
</svg>
