<?xml version="1.0" encoding="UTF-8" standalone="no"?>
<!-- Created with Inkscape (http://www.inkscape.org/) -->

<svg
   xmlns:dc="http://purl.org/dc/elements/1.1/"
   xmlns:cc="http://creativecommons.org/ns#"
   xmlns:rdf="http://www.w3.org/1999/02/22-rdf-syntax-ns#"
   xmlns:svg="http://www.w3.org/2000/svg"
   xmlns="http://www.w3.org/2000/svg"
   xmlns:sodipodi="http://sodipodi.sourceforge.net/DTD/sodipodi-0.dtd"
   xmlns:inkscape="http://www.inkscape.org/namespaces/inkscape"
   width="110.74395mm"
   height="103.94939mm"
   viewBox="0 0 110.74395 103.94939"
   version="1.1"
   id="svg135"
   inkscape:version="0.92.4 (5da689c313, 2019-01-14)"
   sodipodi:docname="ovelha-perdida.svg">
  <defs
     id="defs129" />
  <sodipodi:namedview
     id="base"
     pagecolor="#ffffff"
     bordercolor="#666666"
     borderopacity="1.0"
     inkscape:pageopacity="0.0"
     inkscape:pageshadow="2"
     inkscape:zoom="0.95564117"
     inkscape:cx="-148.77914"
     inkscape:cy="202.61865"
     inkscape:document-units="mm"
     inkscape:current-layer="g143"
     showgrid="false"
     inkscape:window-width="1316"
     inkscape:window-height="731"
     inkscape:window-x="1410"
     inkscape:window-y="0"
     inkscape:window-maximized="1" />
  <metadata
     id="metadata132">
    <rdf:RDF>
      <cc:Work
         rdf:about="">
        <dc:format>image/svg+xml</dc:format>
        <dc:type
           rdf:resource="http://purl.org/dc/dcmitype/StillImage" />
        <dc:title />
      </cc:Work>
    </rdf:RDF>
  </metadata>
  <g
     inkscape:label="Camada 1"
     inkscape:groupmode="layer"
     id="layer1"
     transform="translate(20.12342,-100.78047)">
    <g
       id="g143"
       transform="translate(-120.59133,-27.800995)">
      <path
         id="path147"
         style="fill:#000000;stroke-width:0.06349995"
         d="m 100.46791,180.55616 v -51.97469 h 55.37198 55.37197 v 51.97469 51.9747 h -55.37197 -55.37198 z m 58.54698,36.67264 c 0.26193,-0.0304 0.90206,-0.10034 1.42251,-0.15547 0.52044,-0.0551 1.04908,-0.12684 1.17475,-0.15935 0.12567,-0.0325 0.39993,-0.0777 0.60948,-0.10046 0.20955,-0.0228 0.53817,-0.0792 0.73025,-0.12551 0.19209,-0.0463 0.64929,-0.14692 1.016,-0.22364 0.36672,-0.0767 0.79534,-0.17649 0.9525,-0.22171 0.15717,-0.0452 0.38577,-0.10152 0.508,-0.1251 0.12224,-0.0236 0.33655,-0.0803 0.47625,-0.126 0.1397,-0.0457 0.46832,-0.14673 0.73025,-0.22444 5.18638,-1.53889 10.12814,-4.3233 14.31924,-8.0681 0.92798,-0.82915 2.71702,-2.64615 3.49799,-3.55263 1.88652,-2.18974 3.71262,-4.84978 4.9477,-7.20725 0.20128,-0.38417 0.40017,-0.75565 0.44198,-0.8255 0.0661,-0.11043 0.39855,-0.82003 0.89248,-1.90499 0.20521,-0.45076 0.5678,-1.33069 0.73266,-1.778 0.0772,-0.20955 0.16512,-0.43815 0.19531,-0.508 0.0302,-0.0699 0.0935,-0.2413 0.14081,-0.381 l 0.0859,-0.254 1.45407,0.006 c 0.79974,0.003 4.4027,0.0441 8.00659,0.0913 5.00022,0.0655 6.59104,0.0682 6.71512,0.0117 0.11814,-0.0538 0.16226,-0.1222 0.16136,-0.25007 -9.5e-4,-0.13691 -0.15174,-0.3311 -0.67897,-0.87449 -1.85176,-1.9085 -5.05435,-5.24521 -5.30982,-5.53219 -0.12814,-0.14393 -0.23245,-0.28681 -0.23181,-0.3175 0.001,-0.0602 0.3601,-0.44999 1.51494,-1.64533 0.40598,-0.42021 1.03819,-1.07749 1.4049,-1.46061 0.36671,-0.38312 1.20968,-1.26269 1.87325,-1.95461 0.66357,-0.69192 1.22597,-1.31059 1.24979,-1.37482 0.0241,-0.0651 0.005,-0.16868 -0.0425,-0.2341 -0.0816,-0.11155 -0.29777,-0.11889 -4.39304,-0.14907 l -4.30726,-0.0318 -0.0167,-2.34538 c -0.0147,-2.07103 -0.0289,-2.35886 -0.12096,-2.46062 -0.0973,-0.10756 -0.26997,-0.11531 -2.58683,-0.11612 -1.36539,-5e-4 -2.54714,-0.0182 -2.6261,-0.0393 -0.15908,-0.0426 -0.1543,-0.0267 -0.30214,-1.00755 -0.0579,-0.38417 -0.13472,-0.84137 -0.17068,-1.016 -0.036,-0.17462 -0.10189,-0.50323 -0.1465,-0.73025 -0.21666,-1.10274 -0.57228,-2.51757 -0.91774,-3.65124 -0.0745,-0.24448 -0.16058,-0.53023 -0.1913,-0.635 -0.0307,-0.10478 -0.17431,-0.51911 -0.31908,-0.92075 -0.14477,-0.40164 -0.30139,-0.84455 -0.34804,-0.98425 -0.0813,-0.24341 -0.22888,-0.61939 -0.34896,-0.889 -0.0311,-0.0699 -0.19021,-0.44132 -0.35355,-0.8255 -0.33732,-0.79332 -1.28867,-2.74813 -1.68426,-3.46074 -2.49877,-4.50124 -5.88453,-8.52429 -9.80618,-11.65197 -3.22487,-2.57196 -6.3685,-4.38493 -10.12824,-5.84105 -0.33179,-0.1285 -0.70327,-0.27233 -0.8255,-0.31963 -0.20838,-0.0806 -1.24478,-0.41085 -2.25425,-0.71825 -0.24447,-0.0744 -0.68738,-0.19385 -0.98425,-0.26535 -0.29686,-0.0715 -0.69691,-0.16916 -0.889,-0.21703 -0.69894,-0.17416 -1.24638,-0.29169 -1.61925,-0.34762 -0.20955,-0.0314 -0.69532,-0.10278 -1.0795,-0.15855 -0.38417,-0.0558 -0.86994,-0.13072 -1.07949,-0.16657 -0.54381,-0.093 -3.80531,-0.31496 -4.64089,-0.31577 -0.69377,-6.8e-4 -4.25203,0.22804 -4.33398,0.27859 -0.0232,0.0143 -0.32789,0.0585 -0.67714,0.0983 -0.34925,0.0397 -0.84931,0.11198 -1.11124,0.1605 -0.26194,0.0485 -0.61913,0.10632 -0.79375,0.12844 -0.17463,0.0221 -0.46038,0.0794 -0.635,0.12728 -0.17463,0.0479 -0.46038,0.11874 -0.635,0.15748 -0.17463,0.0387 -0.48895,0.10864 -0.6985,0.15533 -0.41876,0.0933 -1.09165,0.27531 -1.778,0.48091 -0.24448,0.0732 -0.57309,0.17123 -0.73025,0.21777 -0.26181,0.0775 -1.74588,0.61727 -2.50825,0.91222 -1.02008,0.39464 -3.07872,1.3796 -4.20687,2.01278 -1.24783,0.70035 -1.41199,0.80025 -2.54445,1.5485 -1.15002,0.75984 -2.92127,2.08685 -3.68348,2.75963 -2.75317,2.43014 -4.48264,4.31292 -6.42571,6.99531 -0.68909,0.95129 -1.7386,2.5837 -2.27423,3.53734 -0.57418,1.02228 -1.39747,2.65027 -1.68445,3.33087 -0.086,0.20396 -0.23975,0.55657 -0.34165,0.78358 -0.10191,0.22701 -0.22925,0.52705 -0.28298,0.66675 -0.0537,0.1397 -0.18944,0.4826 -0.30158,0.762 -0.11214,0.2794 -0.28437,0.76517 -0.38275,1.0795 -0.0984,0.31432 -0.20779,0.64294 -0.24315,0.73025 -0.13114,0.32383 -0.47766,1.53991 -0.86851,3.048 -0.14855,0.57317 -0.41576,1.91044 -0.57732,2.88924 -0.0519,0.31433 -0.11798,0.71016 -0.14689,0.87964 -0.0289,0.16948 -0.0924,0.33335 -0.14102,0.36416 -0.0486,0.0308 -1.13758,0.0564 -2.41984,0.057 -2.29513,9.6e-4 -2.33249,0.003 -2.40201,0.13293 -0.0478,0.0894 -0.0684,0.75215 -0.0636,2.05424 0.006,1.7112 -0.005,1.93179 -0.0974,2.00889 -0.0852,0.0708 -1.11209,0.0964 -5.60597,0.13987 -3.02588,0.0293 -5.56274,0.0658 -5.63747,0.0811 -0.17431,0.0357 -0.23309,0.19091 -0.13897,0.36691 0.0407,0.076 0.46246,0.53833 0.93732,1.02727 0.47486,0.48895 1.77714,1.84627 2.89395,3.01625 1.11682,1.16999 2.24252,2.34829 2.50156,2.61845 0.3918,0.40861 0.46128,0.51208 0.41325,0.61535 -0.0318,0.0683 -0.61495,0.7041 -1.29599,1.41295 -0.68104,0.70884 -1.53829,1.60185 -1.905,1.98446 -0.36671,0.38261 -1.01278,1.05451 -1.43571,1.4931 -1.48525,1.54024 -1.50795,1.56959 -1.35594,1.75276 0.0659,0.0794 1.28324,0.0942 8.86802,0.10807 l 8.79169,0.0161 0.11681,0.28575 c 0.0643,0.15716 0.22295,0.55721 0.35268,0.889 0.87085,2.22729 1.99677,4.47588 3.25904,6.50874 1.45814,2.34832 3.21508,4.59415 5.16694,6.60474 2.29113,2.36008 4.29333,3.97557 7.47846,6.03408 0.99714,0.64444 3.98253,2.18353 5.04376,2.60028 0.24201,0.095 0.48489,0.19819 0.53975,0.22924 0.0548,0.0311 0.21403,0.0962 0.35373,0.14488 0.1397,0.0486 0.53975,0.19349 0.889,0.32191 0.75938,0.27922 1.35651,0.47933 2.00025,0.67035 0.26194,0.0777 0.59055,0.17872 0.73025,0.22444 0.1397,0.0457 0.35401,0.10195 0.47625,0.12495 0.12224,0.023 0.36513,0.0809 0.53975,0.12875 0.17463,0.0478 0.60325,0.14819 0.9525,0.22303 0.34925,0.0748 0.80645,0.17365 1.016,0.21958 0.20955,0.0459 0.53816,0.10264 0.73025,0.12606 0.19209,0.0234 0.44926,0.0673 0.5715,0.0975 0.1982,0.049 1.32199,0.18668 2.57175,0.31513 0.64086,0.0659 5.75388,0.0677 6.31824,0.002 z m -5.46101,-2.92835 c -1.57295,-0.0811 -4.37794,-0.50378 -5.61974,-0.84682 -0.17463,-0.0482 -0.42818,-0.10666 -0.56345,-0.12982 -0.13526,-0.0232 -0.29243,-0.066 -0.34925,-0.0951 -0.0568,-0.0291 -0.41763,-0.14004 -0.8018,-0.24647 -0.38418,-0.10643 -1.02712,-0.31065 -1.42875,-0.45382 -0.40164,-0.14317 -0.84455,-0.29917 -0.98425,-0.34667 -1.19979,-0.40792 -4.33494,-1.8866 -4.73575,-2.23359 -0.0551,-0.0477 -0.12158,-0.0868 -0.14765,-0.0868 -0.0714,0 -0.9274,-0.50899 -1.18085,-0.70219 -0.12224,-0.0932 -0.30797,-0.21705 -0.41275,-0.27529 -0.24274,-0.13492 -0.4632,-0.27558 -0.80632,-0.51446 -0.40222,-0.28002 -1.91899,-1.38718 -1.95593,-1.42771 -0.0175,-0.0192 -0.18891,-0.16221 -0.381,-0.31788 -1.92399,-1.55926 -3.85409,-3.52311 -5.4929,-5.58896 -0.67429,-0.85 -1.54492,-2.04148 -1.81834,-2.48844 -0.0921,-0.15059 -0.36724,-0.59257 -0.61136,-0.98217 -0.83282,-1.3291 -1.79386,-3.17436 -2.42566,-4.65738 -0.21574,-0.50641 -0.4311,-1.00648 -0.47858,-1.11125 -0.0475,-0.10478 -0.20449,-0.51911 -0.34894,-0.92075 -0.14444,-0.40164 -0.30054,-0.78888 -0.34688,-0.86053 -0.12637,-0.1954 -0.49117,-1.33823 -0.50153,-1.57119 l -0.009,-0.20353 h 1.10652 1.10652 l 0.11,0.28575 c 0.18597,0.48312 0.31565,0.89634 0.4683,1.49225 0.13002,0.50759 0.21796,0.76399 0.41381,1.2065 0.0309,0.0699 0.13364,0.31274 0.22828,0.53975 1.18126,2.83346 2.93921,5.75276 4.97099,8.25499 1.2012,1.47934 3.08628,3.42173 4.23208,4.36075 1.05583,0.86529 1.43975,1.17046 1.90776,1.51642 0.51484,0.38059 1.71706,1.21303 1.91983,1.32932 0.0602,0.0345 0.25617,0.15532 0.43556,0.26847 1.21296,0.76511 3.46255,1.89167 4.91259,2.46015 0.50641,0.19853 1.02076,0.40013 1.143,0.448 0.12224,0.0479 0.29369,0.10462 0.381,0.12613 0.0873,0.0215 0.25876,0.078 0.381,0.12544 0.12224,0.0475 0.43656,0.14758 0.6985,0.22244 0.26194,0.0749 0.61013,0.17775 0.77376,0.22864 0.16362,0.0509 0.4208,0.11946 0.57149,0.1524 0.1507,0.0329 0.53117,0.12035 0.8455,0.19427 0.31432,0.0739 0.87154,0.18956 1.23825,0.25697 0.65527,0.12046 0.88919,0.15663 2.2225,0.34369 1.71929,0.24121 5.63171,0.24344 7.239,0.004 0.33179,-0.0494 0.7747,-0.10684 0.98425,-0.12766 0.58424,-0.058 2.44665,-0.42592 2.94818,-0.58236 0.15466,-0.0482 0.34039,-0.0877 0.41275,-0.0877 0.0724,0 0.30302,-0.0555 0.51257,-0.12329 0.20955,-0.0678 0.59531,-0.18524 0.85725,-0.26095 0.26193,-0.0757 0.7449,-0.23454 1.07324,-0.35296 0.32835,-0.11842 0.62838,-0.21628 0.66674,-0.21747 0.0384,-0.001 0.18406,-0.0574 0.32376,-0.12484 0.1397,-0.0675 0.29245,-0.12366 0.33945,-0.12485 0.047,-0.001 0.1613,-0.0435 0.254,-0.0941 0.0927,-0.0506 0.48287,-0.2254 0.86705,-0.38846 1.70631,-0.72424 4.01102,-2.01011 5.68312,-3.17079 0.25157,-0.17462 0.49024,-0.34699 0.53039,-0.38304 0.0401,-0.036 0.34445,-0.26984 0.67623,-0.51955 0.33179,-0.24971 0.6604,-0.50605 0.73025,-0.56965 0.0698,-0.0636 0.31274,-0.26808 0.53975,-0.45442 1.23494,-1.01365 3.25354,-3.09545 4.48114,-4.62144 1.85586,-2.30696 3.56162,-5.14328 4.74994,-7.89813 0.48576,-1.12612 0.51853,-1.21363 0.67776,-1.80975 0.19866,-0.74371 0.57872,-1.83416 0.6584,-1.889 0.0379,-0.0261 0.5405,-0.0404 1.11676,-0.0318 1.00813,0.0152 1.04847,0.0208 1.06668,0.1483 0.0237,0.16553 -0.33117,1.29372 -0.52748,1.6772 -0.0805,0.15716 -0.2047,0.44291 -0.27609,0.635 -0.69825,1.87879 -1.63065,3.96018 -2.34681,5.23874 -0.40068,0.71534 -1.24472,2.12206 -1.50495,2.50825 -0.36876,0.54725 -1.31585,1.87027 -1.57261,2.19682 -0.11247,0.14305 -0.33108,0.4288 -0.4858,0.635 -0.15472,0.20621 -0.30066,0.38921 -0.32431,0.40668 -0.0236,0.0175 -0.18532,0.2032 -0.35926,0.41275 -0.75157,0.90543 -2.55863,2.75069 -3.51187,3.58609 -0.33178,0.29077 -0.68897,0.60369 -0.79376,0.69536 -0.33058,0.28925 -1.29658,1.02337 -2.13547,1.6229 -1.97902,1.41433 -4.11716,2.63364 -6.24651,3.56216 -0.80513,0.35109 -2.43347,0.96693 -2.92099,1.10473 -0.10478,0.0296 -0.27623,0.0835 -0.381,0.11978 -0.75551,0.2615 -2.24533,0.66677 -2.95276,0.80322 -0.22701,0.0438 -0.55562,0.11072 -0.73024,0.14875 -2.50794,0.54613 -5.64713,0.74695 -8.98525,0.57482 z m 2.69876,-5.87323 c -0.0699,-0.0109 -0.40888,-0.0385 -0.75339,-0.0613 l -0.62638,-0.0414 0.0305,-0.1999 c 0.0168,-0.10995 0.0177,-0.23563 0.002,-0.27928 -0.0472,-0.13137 -0.27295,-0.0899 -0.48504,0.0892 -0.34147,0.28828 -0.66584,0.40002 -1.16567,0.40153 -1.17173,0.004 -1.83743,-0.66089 -1.90835,-1.9048 -0.0621,-1.08949 0.22228,-1.91623 0.84896,-2.46785 0.65603,-0.57746 1.69931,-0.50862 2.44054,0.16103 0.13787,0.12456 0.28937,0.21162 0.33667,0.19347 0.0891,-0.0342 0.16762,-0.60639 0.16848,-1.22803 5.7e-4,-0.42082 -0.13061,-0.59001 -0.49545,-0.63894 l -0.27235,-0.0365 0.019,-0.29285 c 0.0183,-0.28245 0.0258,-0.29235 0.20949,-0.27883 0.10478,0.008 0.67628,0.0465 1.27,0.0862 0.59373,0.0397 1.09756,0.0906 1.11964,0.11297 0.0221,0.0224 -0.0532,1.23902 -0.16727,2.70353 -0.14888,1.91141 -0.1896,2.71383 -0.14431,2.84373 0.0492,0.14125 0.12427,0.19733 0.34189,0.25553 0.29159,0.078 0.30356,0.0991 0.23911,0.42129 l -0.0397,0.19844 -0.42068,-0.009 c -0.23138,-0.005 -0.47784,-0.0176 -0.54769,-0.0285 z m -1.96396,-0.8179 c 0.30156,-0.12599 0.50613,-0.58175 0.59955,-1.33569 0.12296,-0.99237 -0.0328,-1.59018 -0.46899,-1.79992 -0.39113,-0.18808 -0.8445,0.0918 -0.99022,0.61127 -0.0364,0.12989 -0.0972,0.49478 -0.13499,0.81088 -0.10924,0.91305 0.0507,1.51765 0.45647,1.72621 0.19744,0.10147 0.26888,0.0998 0.53818,-0.0127 z m 3.6197,0.51375 c -0.0686,-0.34331 -0.0465,-0.40281 0.16571,-0.44526 0.33081,-0.0662 0.4328,-0.20402 0.4328,-0.58506 0,-0.37742 -0.11072,-1.84991 -0.16331,-2.17203 -0.0467,-0.2859 -0.23267,-0.45683 -0.49705,-0.45683 -0.21042,0 -0.21643,-0.007 -0.23879,-0.28836 -0.0197,-0.2477 -0.005,-0.29203 0.10473,-0.31444 0.25812,-0.0527 2.2653,-0.16999 2.30086,-0.13442 0.0361,0.0361 0.0611,0.29271 0.23236,2.39251 0.0472,0.57862 0.11827,1.11266 0.15793,1.18675 0.05,0.0934 0.15977,0.14787 0.35768,0.17755 l 0.28559,0.0428 v 0.27397 0.27397 l -0.33338,0.0358 c -0.18336,0.0197 -0.88131,0.0718 -1.55101,0.1157 l -1.21763,0.0799 z m 4.87373,-0.29583 c -0.78059,-0.15634 -1.26026,-0.74798 -1.55664,-1.92 -0.26233,-1.03739 -0.044,-1.97001 0.57087,-2.43902 0.53204,-0.4058 1.32146,-0.48465 1.90689,-0.19047 0.58947,0.2962 0.62869,0.24026 0.42803,-0.61066 -0.20134,-0.85377 -0.26369,-0.9337 -0.7284,-0.9337 -0.36539,0 -0.37226,-0.003 -0.41129,-0.19844 -0.066,-0.32989 -0.0519,-0.35023 0.29369,-0.4245 0.18336,-0.0394 0.74233,-0.16126 1.24215,-0.27078 0.49983,-0.10953 0.92416,-0.18375 0.94297,-0.16495 0.0188,0.0188 0.30034,1.17195 0.62565,2.56255 0.32531,1.3906 0.62113,2.60521 0.65737,2.69913 0.0813,0.21077 0.24925,0.30548 0.5416,0.30548 0.2085,0 0.22883,0.018 0.2941,0.26041 0.0386,0.14323 0.0611,0.26862 0.0501,0.27864 -0.0561,0.0511 -2.22919,0.47972 -2.26258,0.44633 -0.0215,-0.0215 -0.0686,-0.13017 -0.10475,-0.24156 -0.1,-0.30821 -0.24085,-0.28525 -0.51146,0.0834 -0.25413,0.3462 -0.55703,0.57083 -0.9195,0.6819 -0.3405,0.10435 -0.76563,0.13496 -1.05877,0.0762 z m 1.81459,-1.1061 c 0.15692,-0.15721 0.16467,-0.19678 0.15957,-0.81437 -0.004,-0.52503 -0.0383,-0.74957 -0.17785,-1.17447 -0.27364,-0.83342 -0.6351,-1.13694 -1.15117,-0.96662 -0.42833,0.14136 -0.54465,0.63209 -0.36149,1.52496 0.15819,0.77109 0.35169,1.21832 0.63457,1.4667 0.19346,0.16987 0.25937,0.19235 0.47792,0.16303 0.1553,-0.0208 0.31741,-0.098 0.41845,-0.19923 z m -17.20224,0.53301 c -0.78578,-0.17177 -1.4664,-0.32678 -1.51251,-0.34448 -0.0461,-0.0177 -0.0702,-0.0823 -0.0536,-0.1436 0.0166,-0.0613 0.0473,-0.18821 0.0681,-0.28204 0.0342,-0.15405 0.0589,-0.16718 0.25524,-0.13532 0.36805,0.0597 0.49073,-0.13071 0.72505,-1.12561 0.41412,-1.75832 0.41582,-1.84512 0.0392,-2.0025 -0.24669,-0.10307 -0.24413,-0.096 -0.15304,-0.42402 0.0557,-0.20048 0.0886,-0.23348 0.20602,-0.20676 0.0769,0.0175 0.53983,0.11787 1.02878,0.22307 0.48894,0.1052 0.94844,0.20471 1.02109,0.22114 0.1052,0.0238 0.12658,0.0674 0.10502,0.21434 -0.0393,0.26793 0.0702,0.29288 0.45626,0.10399 0.97391,-0.47649 1.9737,0.0606 1.84567,0.99143 -0.0575,0.418 -0.41336,0.7551 -0.79715,0.7551 -0.44505,0 -0.75367,-0.24995 -0.75623,-0.61246 -10e-4,-0.19336 0.10834,-0.34295 0.40578,-0.5533 0.15554,-0.10999 0.0953,-0.27778 -0.11914,-0.33159 -0.3942,-0.0989 -0.83818,0.13104 -1.11373,0.57688 -0.14461,0.23397 -0.57338,1.8828 -0.58855,2.26323 -0.0116,0.29002 0.0736,0.39396 0.40371,0.49287 0.25714,0.077 0.26034,0.0816 0.21724,0.31142 -0.0527,0.28094 -0.0802,0.3308 -0.17885,0.32498 -0.0416,-0.002 -0.71853,-0.145 -1.5043,-0.31677 z m 20.95492,-0.99935 c -0.12224,-0.0669 -0.30798,-0.25921 -0.41275,-0.4274 -0.15443,-0.2479 -0.1905,-0.37532 -0.1905,-0.67285 0,-0.34197 0.0173,-0.38504 0.254,-0.6305 0.1397,-0.14491 0.46831,-0.40834 0.73025,-0.5854 1.00003,-0.67601 1.19465,-0.90984 1.12328,-1.34966 -0.0811,-0.49965 -0.53696,-0.83751 -1.03748,-0.7689 -0.35422,0.0486 -0.754,0.25252 -0.8841,0.45107 -0.13113,0.20014 -0.0871,0.26191 0.22193,0.31133 0.63652,0.10178 0.58267,0.86549 -0.0786,1.11536 -0.22736,0.0859 -0.65043,0.087 -0.80901,0.002 -0.17438,-0.0933 -0.31398,-0.39612 -0.31398,-0.68104 0,-0.69723 1.00285,-1.4508 2.51319,-1.88848 0.67343,-0.19516 1.04198,-0.20157 1.40776,-0.0245 0.34225,0.16568 0.43938,0.31739 1.03172,1.61165 0.25575,0.5588 0.49254,1.05172 0.52619,1.09537 0.10581,0.13726 0.41357,0.0949 0.52294,-0.0721 0.0911,-0.13899 0.089,-0.17844 -0.0255,-0.47965 l -0.1247,-0.3282 0.15807,-0.0601 c 0.0869,-0.0331 0.17207,-0.0601 0.18918,-0.0601 0.10361,0 0.36304,0.76896 0.36791,1.09051 0.007,0.47644 -0.12648,0.65414 -0.7203,0.95736 -0.38333,0.19574 -0.53317,0.23813 -0.84181,0.23813 -0.21724,0 -0.45685,-0.0421 -0.56856,-0.0999 -0.24793,-0.12821 -0.33776,-0.0894 -0.49165,0.21221 -0.4144,0.8123 -1.87587,1.41098 -2.54746,1.04355 z m 1.98737,-1.16912 c 0.2095,-0.0804 0.36213,-0.34452 0.36213,-0.62658 0,-0.25603 -0.29779,-0.92633 -0.43542,-0.98009 -0.10988,-0.0429 -0.55029,0.38733 -0.78067,0.76263 -0.15908,0.25915 -0.15375,0.63672 0.011,0.77849 0.23785,0.20468 0.43967,0.22037 0.84296,0.0656 z m -27.32386,0.98919 c -1.12254,-0.21476 -2.09272,-0.85544 -2.42859,-1.60378 -0.33557,-0.74765 -0.10859,-1.89428 0.50612,-2.5568 0.20864,-0.22486 0.17162,-0.40704 -0.0795,-0.39137 -0.33959,0.0212 -1.00648,-0.12057 -1.40253,-0.29817 -0.21356,-0.0958 -0.73682,-0.37767 -1.16281,-0.62648 -0.426,-0.24881 -0.81252,-0.45238 -0.85895,-0.45238 -0.0464,0 -0.28367,0.30718 -0.52719,0.68262 -0.52945,0.81625 -0.58702,0.92263 -0.58702,1.08463 0,0.12232 0.38989,0.51875 0.51021,0.51875 0.10398,0 0.0681,0.18173 -0.0816,0.41329 -0.0808,0.12502 -0.17929,0.20749 -0.22672,0.18989 -0.13733,-0.051 -3.08381,-1.81787 -3.17649,-1.90482 -0.0709,-0.0665 -0.0563,-0.12392 0.0863,-0.33946 l 0.17165,-0.25939 0.24453,0.12474 c 0.34411,0.17556 0.57402,0.1606 0.76658,-0.0499 0.28651,-0.31316 2.33853,-3.54614 2.3789,-3.74798 0.0413,-0.20653 -0.0721,-0.36844 -0.41274,-0.58921 l -0.15208,-0.0986 0.1764,-0.26655 c 0.097,-0.1466 0.18751,-0.26655 0.2011,-0.26655 0.0136,0 0.30268,0.16713 0.64243,0.37141 0.33976,0.20429 1.21781,0.72906 1.95124,1.16619 1.64613,0.98108 1.86807,1.13026 2.25064,1.51284 0.71328,0.71327 0.74819,1.31887 0.13065,2.26609 -0.15676,0.24045 -0.0219,0.29733 0.49729,0.20976 0.36641,-0.0618 0.53549,-0.0583 0.94991,0.0199 0.54854,0.10346 1.27224,0.4325 1.61698,0.73519 0.50963,0.44746 0.72501,1.2373 0.55537,2.03667 -0.1392,0.65591 -0.10242,0.64752 -1.15154,0.26288 -0.50177,-0.18396 -1.1657,-0.42438 -1.47541,-0.53427 l -0.5631,-0.19981 -0.11604,0.1433 c -0.13822,0.17069 -0.21678,0.62515 -0.16415,0.94949 0.0513,0.31642 0.21709,0.52613 0.55044,0.69647 0.46602,0.23812 0.96572,0.16454 1.34276,-0.19773 l 0.1693,-0.16266 0.4022,0.13295 c 0.22121,0.0731 0.42834,0.15678 0.46029,0.1859 0.0812,0.074 -0.44358,0.55124 -0.7708,0.70107 -0.26836,0.12288 -0.92526,0.199 -1.22404,0.14183 z m 1.19728,-2.71112 c 0.0384,-0.0463 0.10235,-0.22504 0.1421,-0.39725 0.0915,-0.39658 -0.0285,-0.72514 -0.33544,-0.91776 -0.29031,-0.1822 -0.80897,-0.14692 -1.04236,0.0709 -0.20781,0.19397 -0.41572,0.59422 -0.37024,0.71275 0.0303,0.0791 1.27429,0.59776 1.46451,0.61064 0.0394,0.003 0.10302,-0.033 0.14143,-0.0793 z m -4.26821,-3.31553 c 0.11196,-0.0854 0.28046,-0.31242 0.37442,-0.50448 0.28414,-0.58075 0.12001,-0.95595 -0.63026,-1.44088 -0.39538,-0.25555 -0.60995,-0.30108 -0.73106,-0.15515 -0.25669,0.3093 -0.95867,1.48101 -0.95867,1.60018 0,0.10857 0.0881,0.19457 0.35661,0.34822 0.71234,0.40755 1.19364,0.45363 1.58896,0.15211 z m 34.51566,3.82717 c -0.13387,-0.1613 -0.71075,-1.06733 -0.71075,-1.11627 0,-0.0274 0.11568,-0.11486 0.25707,-0.19432 0.2544,-0.14298 0.25949,-0.14327 0.49212,-0.0276 0.1618,0.0805 0.37359,0.11658 0.67956,0.11587 0.37161,-8.9e-4 0.50012,-0.0317 0.7837,-0.18788 0.41595,-0.22913 0.58155,-0.4299 0.58155,-0.70505 0,-0.25551 -0.18598,-0.40778 -0.49807,-0.40778 -0.1187,0 -0.57668,0.0842 -1.01775,0.18703 -1.01926,0.23772 -1.51744,0.29314 -1.79923,0.20014 -0.42003,-0.13863 -0.81319,-0.70186 -0.81182,-1.16301 7e-4,-0.24083 0.2416,-0.76963 0.4581,-1.00561 0.45679,-0.4979 1.34229,-0.99159 2.04952,-1.14265 0.44531,-0.0951 0.53961,-0.15413 0.54015,-0.33804 6.4e-4,-0.12248 0.29269,-0.35736 0.44474,-0.35736 0.0876,0 0.64838,0.94195 0.60374,1.01418 -0.0225,0.0364 -0.12561,0.11001 -0.22911,0.16354 -0.14813,0.0766 -0.23851,0.0833 -0.4246,0.0316 -0.52223,-0.14504 -1.15183,-0.0152 -1.55889,0.32143 -0.29591,0.24472 -0.38336,0.44455 -0.28706,0.65591 0.12374,0.27158 0.38629,0.32978 0.93781,0.20784 0.26468,-0.0585 0.75269,-0.16644 1.08447,-0.23983 0.81077,-0.17935 1.25007,-0.14895 1.56817,0.10851 0.45329,0.36688 0.64932,1.0036 0.45083,1.4644 -0.33417,0.77581 -1.34947,1.47173 -2.49949,1.71325 -0.58927,0.12375 -0.67548,0.17573 -0.64981,0.39176 0.0241,0.20319 -0.32924,0.44928 -0.44495,0.30986 z m -15.86087,-0.83313 c -0.30363,-0.13551 -0.47086,-0.39141 -0.47086,-0.72054 0,-0.23778 0.0348,-0.31837 0.2159,-0.49943 0.18423,-0.18423 0.25964,-0.2159 0.51407,-0.2159 0.36371,0 0.63244,0.14811 0.76125,0.41956 0.12056,0.25407 0.12169,0.42659 0.004,0.65366 -0.18123,0.35046 -0.66682,0.52232 -1.02463,0.36265 z m -4.09036,-4.67606 c -1.34467,-0.0986 -1.8895,-0.18221 -3.17501,-0.48694 -2.39263,-0.56719 -4.98532,-1.75834 -6.91422,-3.17661 -1.41059,-1.03716 -3.2012,-2.76163 -4.00777,-3.85973 -0.12224,-0.16642 -0.40907,-0.5202 -0.6374,-0.78617 -0.22833,-0.26598 -0.47076,-0.56932 -0.53874,-0.6741 -0.33273,-0.51282 -0.64877,-1.08452 -0.62308,-1.12712 0.0346,-0.0574 34.4633,-0.0649 34.52065,-0.008 0.0822,0.0822 -0.75949,1.38852 -1.30754,2.02918 -0.18185,0.2126 -0.53893,0.64399 -0.79349,0.95864 -0.8419,1.04067 -2.58978,2.68105 -3.66003,3.43496 -0.697,0.491 -1.12425,0.77611 -1.16299,0.77611 -0.021,0 -0.0833,0.04 -0.13839,0.0888 -0.21346,0.18909 -2.38988,1.30819 -2.54416,1.30819 -0.0563,0 -0.12958,0.0266 -0.16276,0.0591 -0.13593,0.13306 -1.73033,0.66868 -2.82257,0.94821 -1.20317,0.30792 -1.52983,0.35873 -3.33375,0.51847 -0.71752,0.0635 -1.8048,0.0622 -2.69875,-0.003 z m -35.36949,-7.72211 c -1.3525,-0.64214 -1.65847,-0.78388 -1.9685,-0.91194 -0.19209,-0.0793 -0.7493,-0.3349 -1.23825,-0.56792 -0.48895,-0.23302 -1.09617,-0.52085 -1.34937,-0.63962 -0.25321,-0.11878 -0.46038,-0.23863 -0.46038,-0.26633 0,-0.0277 1.06806,-0.0504 2.37348,-0.0504 1.82154,0 2.38868,0.0185 2.4389,0.0794 0.036,0.0437 0.10854,0.23654 0.16123,0.42862 0.0527,0.19209 0.15704,0.54928 0.2319,0.79375 0.0749,0.24448 0.15932,0.54451 0.18768,0.66675 0.0284,0.12224 0.082,0.29789 0.11913,0.39035 0.11876,0.29544 0.002,0.31366 -0.49582,0.0773 z m 73.10381,-0.34894 c 0.0313,-0.29594 0.38006,-1.53728 0.52846,-1.88087 l 0.0891,-0.20638 h 2.31878 c 1.27532,0 2.31877,0.023 2.31877,0.0511 0,0.042 -0.7166,0.37461 -1.74625,0.81052 -0.10477,0.0444 -0.38361,0.16787 -0.61963,0.27448 -0.23603,0.1066 -0.6218,0.26804 -0.85725,0.35875 -0.23547,0.0907 -0.76811,0.31297 -1.18364,0.49393 -0.41555,0.18096 -0.78303,0.3396 -0.81663,0.35252 -0.036,0.0138 -0.0491,-0.0904 -0.0318,-0.254 z m -51.72118,-5.01147 c -0.37522,-0.0921 -0.68678,-0.2759 -1.03327,-0.60952 -0.62683,-0.60356 -1.00709,-1.32397 -1.28541,-2.43525 -0.14864,-0.59346 -0.16697,-0.7889 -0.16674,-1.778 2.5e-4,-1.00268 0.017,-1.17493 0.17136,-1.76309 0.30598,-1.16554 0.65551,-1.83049 1.26421,-2.40502 0.53062,-0.50082 0.80904,-0.62372 1.41596,-0.62503 0.44112,-9.6e-4 0.55104,0.0228 0.8349,0.18009 0.1798,0.0997 0.43697,0.29813 0.5715,0.44105 l 0.2446,0.25985 -0.2511,-0.21238 c -0.35045,-0.2964 -0.86574,-0.51776 -1.29613,-0.55678 -0.63241,-0.0573 -0.58002,-0.48276 -0.58002,4.70982 0,3.96495 0.0119,4.53785 0.0961,4.60768 0.15755,0.13076 0.89535,0.0467 1.27315,-0.1451 0.17682,-0.0898 0.3602,-0.20984 0.40752,-0.26686 0.0473,-0.057 0.14554,-0.13246 0.21827,-0.16764 0.0727,-0.0352 0.004,0.0519 -0.15353,0.19361 -0.5378,0.48479 -1.19866,0.70335 -1.73136,0.57257 z m 10.79585,-0.14724 c -1.32024,-0.49127 -2.08329,-2.81976 -1.63623,-4.99303 0.21961,-1.0676 0.81742,-2.04022 1.46797,-2.38837 0.1451,-0.0776 0.35477,-0.1163 0.63868,-0.11774 0.39144,-0.002 0.44967,0.0166 0.7883,0.25186 0.80471,0.55901 1.34004,1.78116 1.37908,3.14838 l 0.0135,0.47112 -1.36525,0.0317 -1.36525,0.0318 v 1.57721 1.5772 l 0.17817,0.15317 c 0.53332,0.45849 1.57897,-0.1711 2.16887,-1.30591 0.296,-0.56942 0.38086,-0.49134 0.10551,0.0971 -0.23138,0.49445 -0.76998,1.08229 -1.2121,1.32292 -0.38241,0.20813 -0.83556,0.26378 -1.1612,0.14261 z m 1.11848,-3.86751 c 0.1009,-0.0738 0.10903,-0.21446 0.0915,-1.58301 -0.0181,-1.41249 -0.0272,-1.51271 -0.15309,-1.68115 -0.11988,-0.1604 -0.1722,-0.17911 -0.50115,-0.17911 -0.32894,0 -0.38127,0.0187 -0.50114,0.17911 -0.12588,0.16844 -0.135,0.26866 -0.15309,1.68115 -0.0225,1.75405 -0.0579,1.66399 0.65423,1.66399 0.26613,0 0.49752,-0.0333 0.56273,-0.081 z m 12.96277,3.83601 c -0.5045,-0.22977 -0.92652,-0.84809 -1.08312,-1.58689 -0.36576,-1.72563 0.45206,-3.24764 1.74505,-3.24764 0.42681,0 0.63092,0.0624 0.97263,0.29754 0.39537,0.27203 0.42984,0.18945 0.42561,-1.01969 -0.004,-1.17371 -0.0563,-1.39689 -0.37742,-1.61543 -0.19446,-0.13232 -0.27585,-0.14756 -0.6508,-0.12181 -0.50592,0.0347 -0.84404,0.22433 -1.11368,0.62445 -0.0947,0.1406 -0.23566,0.33238 -0.31314,0.42617 l -0.14086,0.17052 -0.002,-0.23954 c -0.003,-0.32699 0.3687,-0.72758 0.90302,-0.97387 0.36127,-0.16653 0.45913,-0.18282 1.09521,-0.18232 0.38418,3.1e-4 0.84336,0.0375 1.02042,0.0826 0.58781,0.14983 1.14106,0.63504 1.30684,1.14613 0.0495,0.1527 0.0901,1.17358 0.12016,3.0245 0.025,1.5367 0.0665,2.87258 0.0923,2.96862 l 0.0469,0.17463 h -0.99165 -0.99166 v -0.2917 c 0,-0.23829 -0.0233,-0.29777 -0.127,-0.3249 -0.0699,-0.0183 -0.127,-0.0468 -0.127,-0.0634 0,-0.0166 0.0572,-0.10286 0.127,-0.19166 0.11876,-0.15097 0.127,-0.2576 0.127,-1.64266 0,-1.45311 -0.003,-1.48381 -0.14287,-1.61832 -0.18702,-0.17947 -0.60789,-0.37269 -0.81565,-0.37444 -0.0906,-7.7e-4 -0.21922,0.0587 -0.28575,0.13216 -0.112,0.12366 -0.12235,0.26768 -0.13966,1.94359 -0.0213,2.06749 -0.0122,2.11385 0.41877,2.11385 0.13113,0 0.30906,-0.0475 0.39541,-0.10558 0.13764,-0.0926 0.13351,-0.0798 -0.0335,0.10328 -0.22612,0.24791 -0.74874,0.50937 -1.01599,0.50828 -0.10478,-4.4e-4 -0.3048,-0.0528 -0.4445,-0.11645 z m 6.096,0.0628 c -0.48111,-0.12653 -1.17475,-0.66916 -1.17475,-0.919 0,-0.0936 0.0604,-0.0541 0.2547,0.16664 0.48185,0.54741 1.28626,0.79106 1.59438,0.48293 0.23653,-0.23653 0.13308,-0.54923 -0.68138,-2.05975 -1.10659,-2.05233 -1.13545,-2.1289 -1.13572,-3.01266 0,-0.65768 0.0165,-0.76593 0.16813,-1.08936 0.17408,-0.37132 0.58279,-0.82101 0.89108,-0.98044 0.29573,-0.15292 0.69857,-0.17675 1.08569,-0.0642 0.41819,0.12157 0.89444,0.46231 0.92316,0.66047 0.0279,0.19262 -0.0242,0.17622 -0.24728,-0.0779 -0.40424,-0.46042 -1.0693,-0.6188 -1.3634,-0.3247 -0.2947,0.2947 -0.18921,0.69059 0.49021,1.8397 0.24933,0.42167 0.5363,0.89527 0.63773,1.05243 0.31307,0.4851 0.56041,1.06015 0.6626,1.54052 0.24493,1.15136 -0.14883,2.24647 -0.95756,2.66308 -0.27233,0.1403 -0.84643,0.20145 -1.14759,0.12224 z m -24.66026,-0.40472 c -0.0696,-0.18335 -0.30164,-0.79057 -0.51553,-1.34937 -0.21388,-0.5588 -0.49142,-1.28746 -0.61676,-1.61925 -0.18712,-0.49535 -0.87172,-2.20329 -1.48263,-3.69887 l -0.12321,-0.30163 h 1.14802 c 1.03968,0 1.15082,0.0105 1.17777,0.11113 0.0164,0.0611 0.33711,0.9398 0.71278,1.95262 0.58486,1.57682 0.70268,1.84438 0.81967,1.86154 0.10216,0.015 0.16139,-0.0331 0.2347,-0.1905 0.1457,-0.31281 0.10565,-0.18254 -0.54524,1.77329 -0.32824,0.98633 -0.61618,1.79358 -0.63987,1.79387 -0.0237,3.2e-4 -0.10005,-0.14947 -0.1697,-0.33283 z m 8.11852,-4.30212 v -4.57199 h 0.92075 0.92075 v 4.57199 4.572 h -0.92075 -0.92075 z m 3.1115,-0.002 v -4.57373 l 0.90487,0.0176 0.90488,0.0176 0.0171,1.38113 c 0.0165,1.32849 0.0219,1.38112 0.14287,1.38112 0.1576,0 0.15741,0.035 -10e-4,0.23667 -0.1229,0.15624 -0.127,0.25761 -0.127,3.13739 v 2.97594 h -0.92075 -0.92075 v -4.57374 z m 3.39359,1.37168 c 0.004,-3.15593 0.002,-3.20465 -0.12962,-3.38137 -0.18151,-0.24419 -0.43988,-0.26255 -0.74841,-0.0532 -0.36677,0.24889 -0.2381,0.0411 0.18792,-0.30348 1.08137,-0.87467 2.20211,-0.49268 2.43872,0.83121 0.0443,0.24797 0.0769,1.48428 0.0858,3.25437 l 0.0144,2.8545 h -0.92622 -0.92623 l 0.004,-3.20206 z m -18.85584,2.44007 c 0.0632,-0.0699 0.12922,-0.127 0.14668,-0.127 0.0175,0 -0.02,0.0572 -0.0832,0.127 -0.0632,0.0699 -0.12922,0.127 -0.14668,0.127 -0.0175,0 0.02,-0.0572 0.0832,-0.127 z m 6.46759,-5.36575 c 0.094,-0.45248 0.39249,-1.37333 0.40899,-1.26177 0.011,0.0744 -0.0825,0.41728 -0.20769,0.762 -0.12522,0.34473 -0.21581,0.56962 -0.2013,0.49977 z m -27.93037,-6.38139 c -0.0225,-0.0365 -0.0129,-0.15864 0.0215,-0.27147 0.0344,-0.11282 0.0799,-0.36229 0.10113,-0.55438 0.0404,-0.36528 0.0993,-0.66041 0.42428,-2.12725 0.24508,-1.10609 0.2748,-1.2284 0.432,-1.778 0.49555,-1.73255 1.09789,-3.42231 1.73162,-4.85774 0.0694,-0.15716 0.16355,-0.37147 0.20926,-0.47625 0.0457,-0.10477 0.3392,-0.70485 0.65221,-1.3335 1.42437,-2.86069 3.16983,-5.45019 5.29087,-7.84934 2.30702,-2.60952 5.29975,-5.12447 7.99636,-6.71976 0.26183,-0.1549 0.51565,-0.31206 0.56405,-0.34925 0.10098,-0.0776 1.126,-0.64042 1.68999,-0.92795 0.20955,-0.10683 0.42387,-0.22035 0.47625,-0.25228 0.0524,-0.0319 0.29528,-0.14792 0.53975,-0.25776 0.24448,-0.10984 0.58738,-0.26557 0.762,-0.34606 0.17463,-0.0805 0.50324,-0.22143 0.73025,-0.31319 0.22701,-0.0918 0.4699,-0.19387 0.53975,-0.22693 0.30106,-0.14248 1.95509,-0.71074 2.76225,-0.94899 0.26194,-0.0773 0.55109,-0.16829 0.64257,-0.20216 0.18604,-0.0689 0.49756,-0.14219 1.83393,-0.43156 0.50641,-0.10966 1.03505,-0.22773 1.17475,-0.26239 0.1397,-0.0347 0.46831,-0.0889 0.73025,-0.12044 0.26194,-0.0316 0.63341,-0.087 0.8255,-0.12324 0.59587,-0.11229 2.76228,-0.27117 4.15925,-0.30502 1.86259,-0.0451 4.87292,0.19921 6.477,0.52574 0.24447,0.0498 0.74454,0.15111 1.11125,0.2252 0.36671,0.0741 0.85249,0.18495 1.0795,0.24634 0.22701,0.0614 0.52705,0.14104 0.66675,0.17698 0.1397,0.0359 0.45402,0.12719 0.6985,0.20277 0.24447,0.0756 0.57004,0.16423 0.72348,0.19702 0.15344,0.0328 0.3106,0.0828 0.34925,0.11123 0.0386,0.0284 0.32743,0.13373 0.64176,0.23408 0.31432,0.10034 0.62786,0.22009 0.69675,0.26609 0.0689,0.046 0.16322,0.0836 0.20961,0.0836 0.0718,0 0.84678,0.30815 1.50664,0.5991 0.66493,0.29319 2.13272,1.01292 2.57175,1.26106 0.12223,0.0691 0.40798,0.22586 0.635,0.34837 0.22701,0.12252 0.59848,0.34205 0.82549,0.48786 0.22702,0.1458 0.67931,0.43458 1.00511,0.64173 0.3258,0.20714 0.80391,0.53379 1.06247,0.72588 0.25856,0.19208 0.72066,0.53498 1.02689,0.76199 0.30623,0.22702 0.57107,0.42807 0.58853,0.44679 0.0175,0.0187 0.25366,0.21381 0.52488,0.43353 1.50286,1.21746 3.73365,3.49535 5.10574,5.21354 1.06196,1.32984 2.44245,3.33426 3.01908,4.38363 0.0672,0.12224 0.19026,0.33655 0.27353,0.47625 0.18391,0.30854 1.55617,3.03865 1.66045,3.30347 0.0409,0.10397 0.19096,0.46618 0.33338,0.80492 0.14242,0.33873 0.25894,0.64236 0.25894,0.67472 0,0.0324 0.0748,0.2267 0.1662,0.43186 0.26626,0.59762 0.96219,2.81017 1.14308,3.63418 0.0487,0.22202 0.10249,0.42613 0.11947,0.45359 0.0993,0.16074 0.65458,3.04721 0.69014,3.58775 0.008,0.12108 -0.0361,0.12774 -0.94414,0.14281 -0.52388,0.009 -0.98729,-0.007 -1.0298,-0.0342 -0.0425,-0.0275 -0.12068,-0.33886 -0.1737,-0.69188 -0.053,-0.35302 -0.1254,-0.7181 -0.16083,-0.81129 -0.0354,-0.0932 -0.0644,-0.24366 -0.0644,-0.33436 0,-0.0907 -0.0411,-0.31029 -0.0914,-0.48799 -0.0503,-0.17769 -0.15297,-0.59454 -0.22822,-0.92633 -0.0753,-0.33178 -0.20918,-0.84613 -0.29762,-1.143 -0.0884,-0.29686 -0.19865,-0.66833 -0.24491,-0.82549 -0.0463,-0.15717 -0.20176,-0.61437 -0.34557,-1.016 -0.14381,-0.40164 -0.27725,-0.7874 -0.29653,-0.85725 -0.0357,-0.12937 -0.42956,-1.07623 -0.68672,-1.651 -0.62588,-1.39889 -1.19217,-2.51354 -1.83199,-3.60595 -0.17974,-0.30687 -0.35536,-0.60722 -0.39029,-0.66743 -0.0349,-0.0602 -0.32013,-0.49494 -0.6338,-0.96605 -1.9173,-2.8797 -4.25288,-5.476 -6.76395,-7.51898 -0.15716,-0.12787 -0.3429,-0.28333 -0.41275,-0.34547 -0.12215,-0.10868 -1.16473,-0.88319 -1.49225,-1.10858 -0.6253,-0.43029 -1.63758,-1.10597 -1.71548,-1.14505 -0.0519,-0.026 -0.19818,-0.11021 -0.32519,-0.18713 -0.12701,-0.0769 -0.45562,-0.26832 -0.73025,-0.42534 -0.27463,-0.15703 -0.55647,-0.31918 -0.62632,-0.36035 -0.13771,-0.0812 -0.23703,-0.13023 -1.42875,-0.70591 -0.81636,-0.39435 -1.71158,-0.78217 -2.38125,-1.03158 -0.20955,-0.078 -0.43815,-0.16588 -0.508,-0.19519 -0.46338,-0.19443 -1.89055,-0.63766 -2.51405,-0.78078 -0.19527,-0.0448 -0.38176,-0.098 -0.41441,-0.11819 -0.12147,-0.0751 -2.10758,-0.47614 -3.51678,-0.71017 -1.11433,-0.18506 -4.07613,-0.36974 -5.11175,-0.31873 -1.28673,0.0634 -3.22134,0.22044 -3.556,0.2887 -0.17463,0.0356 -0.53181,0.0916 -0.79375,0.12446 -0.26194,0.0328 -0.60484,0.0886 -0.762,0.12401 -0.15716,0.0354 -0.70009,0.15 -1.2065,0.25475 -0.50641,0.10475 -1.12077,0.24942 -1.36525,0.3215 -0.24447,0.0721 -0.60166,0.17109 -0.79375,0.22002 -0.19209,0.0489 -0.4064,0.11473 -0.47625,0.14623 -0.0699,0.0315 -0.3556,0.13203 -0.635,0.22339 -0.2794,0.0914 -0.70802,0.23993 -0.9525,0.33014 -0.24447,0.0902 -0.52217,0.18841 -0.61711,0.21822 -0.0949,0.0298 -0.23703,0.0993 -0.31576,0.15447 -0.0787,0.0551 -0.19666,0.10026 -0.26208,0.10026 -0.0654,0 -0.1948,0.0419 -0.2875,0.093 -0.0927,0.0512 -0.42572,0.21174 -0.74005,0.3568 -1.21671,0.56154 -2.29237,1.12645 -2.95275,1.55072 -0.22701,0.14585 -0.55562,0.34746 -0.73025,0.44803 -0.30901,0.17796 -0.90969,0.5765 -1.61925,1.07434 -0.19208,0.13478 -0.43464,0.30451 -0.53902,0.37718 -0.10438,0.0727 -0.21868,0.1634 -0.254,0.20161 -0.0353,0.0382 -0.39138,0.32395 -0.79125,0.63499 -2.94103,2.28775 -6.2533,6.151 -8.0683,9.41043 -0.0527,0.0947 -0.22647,0.40069 -0.38614,0.68009 -1.19877,2.09764 -2.39376,5.03433 -3.06195,7.52474 -0.0515,0.19209 -0.14038,0.50642 -0.19742,0.6985 -0.057,0.19209 -0.13124,0.50148 -0.16486,0.68754 -0.0336,0.18606 -0.0782,0.36596 -0.0991,0.39979 -0.0209,0.0338 -0.0762,0.29594 -0.12283,0.58247 -0.19527,1.19927 -0.23364,1.41765 -0.27562,1.5687 l -0.0441,0.15875 -0.99394,0.0175 c -0.64097,0.0113 -1.00849,-0.006 -1.03493,-0.0489 z m 15.52553,0.0253 c 0,-0.13076 0.42984,-1.48491 0.66556,-2.09675 0.36763,-0.95422 1.21195,-2.72498 1.40679,-2.9504 0.0477,-0.0551 0.0866,-0.12026 0.0866,-0.14472 0,-0.0748 0.81308,-1.30245 1.27501,-1.92516 1.10715,-1.4925 2.9064,-3.26367 4.31299,-4.24567 1.51133,-1.05512 2.24274,-1.46752 3.90524,-2.20193 1.1005,-0.48615 3.74511,-1.2565 4.31354,-1.2565 0.11722,0 0.43764,-0.0491 0.71205,-0.10921 0.73737,-0.16141 4.05128,-0.16097 5.13442,6.8e-4 0.86183,0.12861 1.83004,0.32539 2.25424,0.45813 0.15717,0.0492 0.3974,0.10897 0.53385,0.13285 0.13645,0.0239 0.32218,0.0821 0.41275,0.12934 0.0906,0.0473 0.20696,0.0861 0.25868,0.0863 0.0517,1.9e-4 0.25173,0.0614 0.4445,0.13608 0.19276,0.0746 0.49335,0.19063 0.66797,0.25778 0.77643,0.29857 2.2991,1.05749 2.95275,1.47169 0.78701,0.49871 1.59437,1.0696 2.20593,1.55984 1.17641,0.94303 2.81339,2.64682 3.5424,3.68699 0.6785,0.9681 0.97494,1.43031 1.3643,2.12725 0.4348,0.77826 0.96456,1.84934 1.11386,2.25202 0.0458,0.12346 0.14326,0.38164 0.21663,0.57372 0.11918,0.312 0.21915,0.6039 0.54371,1.5875 0.0519,0.15716 0.0941,0.33576 0.094,0.39688 0,0.10558 -0.95747,0.11112 -19.20905,0.11112 -10.56482,0 -19.20875,-0.017 -19.20875,-0.0378 z m -3.79989,-1.94797 c -0.19715,-0.0631 -0.20873,-0.0817 -0.16381,-0.26339 0.084,-0.33989 0.0573,-0.60366 -0.0707,-0.69722 -0.0657,-0.0481 -0.29217,-0.1462 -0.5032,-0.21808 -0.63611,-0.21668 -3.54592,-1.14293 -3.73332,-1.18839 -0.31063,-0.0754 -0.45797,0.008 -0.61866,0.35141 -0.1246,0.26602 -0.17205,0.31375 -0.28153,0.28321 -0.3137,-0.0875 -0.48093,-0.17645 -0.48093,-0.25579 0,-0.14608 1.53082,-4.54992 1.69406,-4.87344 0.23549,-0.46671 0.75575,-0.96807 1.09928,-1.05933 0.54718,-0.14537 1.15709,0.0512 1.5183,0.48947 0.19564,0.23734 0.2472,0.39376 0.28899,0.87663 0.0121,0.1397 0.0249,0.27543 0.0284,0.30162 0.0175,0.12978 0.22817,0.0148 0.51165,-0.2793 l 0.31511,-0.32692 0.39947,0.0405 c 0.2197,0.0223 0.64088,0.11224 0.93595,0.19992 0.68921,0.2048 0.85982,0.20447 0.99505,-0.002 0.15441,-0.23565 0.0362,-0.44783 -0.34125,-0.6126 -0.37381,-0.16317 -0.34683,-0.13326 -0.2975,-0.3298 0.0527,-0.20988 0.12872,-0.20825 0.61673,0.0133 0.4625,0.20995 0.78338,0.54421 0.84677,0.88207 0.0868,0.46278 -0.21391,1.34786 -0.59364,1.74715 -0.0907,0.0954 -0.28753,0.22029 -0.43729,0.27749 -0.32733,0.12501 -0.56713,0.0974 -1.44682,-0.16675 -0.84514,-0.25374 -1.07654,-0.24985 -1.33154,0.0224 -0.21284,0.22722 -0.52652,1.04607 -0.46356,1.21012 0.046,0.11998 1.57294,0.61049 1.90038,0.61049 0.26798,0 0.46349,-0.16816 0.52591,-0.45235 0.0219,-0.0997 0.0626,-0.19529 0.0905,-0.21252 0.0785,-0.0485 0.63804,0.16007 0.63804,0.23782 0,0.038 -0.26432,0.83525 -0.58738,1.77176 -0.6418,1.86055 -0.5846,1.77245 -1.05351,1.62246 z m -2.10324,-4.1578 c 0.19336,-0.5098 0.23393,-1.07662 0.0961,-1.34311 -0.12194,-0.23581 -0.49736,-0.43129 -0.93411,-0.48638 -0.36438,-0.046 -0.67364,0.11508 -0.86099,0.44837 -0.1948,0.34652 -0.41059,1.00685 -0.36655,1.12162 0.037,0.0964 1.53624,0.61797 1.78873,0.62227 0.11074,0.002 0.16592,-0.0704 0.2768,-0.36277 z m 49.32098,3.72518 c -1.17419,-0.27673 -2.03603,-1.59195 -2.03533,-3.10605 6.4e-4,-0.97405 0.41579,-1.64734 1.25988,-2.04234 1.42808,-0.66828 2.77609,-0.20662 3.43247,1.17552 0.92196,1.94137 0.20085,3.62003 -1.7108,3.98256 -0.3682,0.0698 -0.61975,0.0673 -0.94622,-0.01 z m 0.0521,-1.7127 c 0.57729,-0.10288 1.4259,-0.37029 1.72581,-0.54384 0.44949,-0.26009 0.58856,-0.73435 0.33653,-1.14768 -0.25853,-0.42401 -0.96797,-0.42904 -2.25736,-0.016 -0.78245,0.25064 -1.11109,0.52458 -1.1107,0.92583 0,0.31473 0.19974,0.64095 0.46139,0.7547 0.25101,0.10912 0.36335,0.11271 0.84433,0.027 z m -3.15762,-4.20335 c -0.16275,-0.25314 -0.4321,-0.67119 -0.59856,-0.92901 l -0.30265,-0.46875 0.21198,-0.17301 c 0.12314,-0.1005 0.19757,-0.21009 0.1776,-0.26149 -0.0189,-0.0487 -0.22358,-0.14204 -0.4548,-0.20749 -0.53433,-0.15125 -0.91367,-0.47453 -1.17837,-1.00424 -0.46745,-0.93544 -0.0527,-1.82851 1.19566,-2.57473 0.91184,-0.54506 1.79826,-0.6799 2.45605,-0.3736 0.62629,0.29163 0.99858,0.97683 0.96623,1.77837 -0.0161,0.3983 -0.005,0.45065 0.0934,0.4428 0.1294,-0.0103 0.96378,-0.49374 1.17423,-0.68032 0.16563,-0.14684 0.18946,-0.48851 0.0514,-0.73779 -0.0817,-0.14757 -0.0741,-0.16573 0.12589,-0.30163 0.11704,-0.0795 0.23869,-0.14461 0.27034,-0.14461 0.0316,0 0.29747,0.37183 0.59074,0.82628 0.29326,0.45445 0.59764,0.9255 0.67638,1.04676 l 0.14318,0.22049 -0.27018,0.16645 c -0.14859,0.0915 -0.37018,0.23147 -0.49242,0.31094 -0.12224,0.0795 -0.43656,0.27264 -0.6985,0.42928 -0.26194,0.15663 -0.86201,0.52104 -1.3335,0.8098 -0.47149,0.28876 -1.07156,0.65382 -1.3335,0.81124 -0.77799,0.46756 -0.87299,0.59393 -0.7222,0.96063 0.0489,0.11887 0.0814,0.22099 0.0722,0.22694 -0.009,0.006 -0.10685,0.073 -0.21701,0.149 -0.11017,0.076 -0.22447,0.13813 -0.254,0.13806 -0.0295,-6e-5 -0.18686,-0.20723 -0.34961,-0.46037 z m 0.54991,-2.52868 c 1.32678,-0.6604 1.79503,-1.35784 1.24288,-1.85119 -0.1959,-0.17503 -0.24371,-0.18888 -0.54472,-0.15781 -0.594,0.0613 -1.83204,0.80632 -2.12345,1.27783 -0.18784,0.30394 -0.17114,0.61068 0.0442,0.8113 0.096,0.0895 0.21749,0.17895 0.26987,0.1988 0.19361,0.0734 0.61701,-0.0329 1.11125,-0.27893 z m -41.74835,0.19115 c -0.64475,-0.13056 -1.38769,-0.64425 -1.79216,-1.23914 -0.43995,-0.64708 -0.46859,-1.40015 -0.0826,-2.17075 0.31505,-0.62891 0.76923,-1.10596 1.31097,-1.37698 0.39223,-0.19623 0.50975,-0.22532 0.90278,-0.22352 0.26104,0.001 0.58824,0.0492 0.77486,0.11374 0.44203,0.1528 0.99425,0.51415 0.9524,0.62321 -0.0182,0.0475 -0.20422,0.29359 -0.4133,0.54682 -1.64242,1.98925 -1.60917,1.91754 -1.02949,2.21964 0.65257,0.34008 1.25857,0.20027 1.57823,-0.36411 0.17779,-0.31391 0.1849,-0.68654 0.0193,-1.01137 l -0.12559,-0.24635 0.28925,-0.33858 c 0.15909,-0.18622 0.31108,-0.33858 0.33776,-0.33858 0.0267,0 0.13115,0.15002 0.23218,0.33338 0.15345,0.2785 0.18385,0.40743 0.18471,0.78332 9.2e-4,0.39696 -0.0276,0.50646 -0.24235,0.92985 -0.64228,1.26644 -1.81482,1.97855 -2.89698,1.75942 z m 0.0393,-2.74234 c 0.70313,-0.87655 0.71,-0.90537 0.26943,-1.13013 -0.51507,-0.26277 -1.08906,-0.13807 -1.2873,0.27968 -0.17803,0.37517 -0.10845,0.69002 0.23004,1.04095 0.29073,0.30141 0.41791,0.27065 0.78783,-0.1905 z m 36.634,-0.7854 -1.1096,-0.92827 0.17133,-0.21473 c 0.18859,-0.23636 0.216,-0.24626 0.40367,-0.14582 0.23924,0.12804 0.42807,-0.004 1.17072,-0.81584 0.84266,-0.92167 1.02533,-1.23554 0.91454,-1.57126 -0.11554,-0.35008 -0.39239,-0.5393 -0.78908,-0.5393 -0.45108,0 -0.61548,0.12085 -1.44779,1.06425 -0.54061,0.61275 -0.68398,0.81462 -0.68398,0.96301 0,0.10326 0.0286,0.2054 0.0635,0.22699 0.11618,0.0718 0.0656,0.25993 -0.1168,0.43472 l -0.18029,0.17273 -1.10558,-0.92559 c -0.60807,-0.50907 -1.11298,-0.94656 -1.12203,-0.97219 -0.009,-0.0256 0.0665,-0.14584 0.16779,-0.26714 0.17437,-0.20871 0.19056,-0.21484 0.3022,-0.11435 0.18427,0.16586 0.44673,0.20759 0.61448,0.0977 0.166,-0.10877 1.53078,-1.60618 1.70576,-1.87152 0.15502,-0.23509 0.14508,-0.35115 -0.0499,-0.5829 l -0.16539,-0.19655 0.16862,-0.22107 c 0.0927,-0.12159 0.18676,-0.22107 0.20892,-0.22107 0.0887,0 1.79474,1.46676 1.79474,1.54303 0,0.0318 -0.0703,0.14137 -0.1561,0.2434 -0.24343,0.28929 -0.16652,0.35352 0.46161,0.38549 0.67098,0.0341 1.05202,0.20611 1.52787,0.68952 0.40745,0.41393 0.5524,0.76846 0.45783,1.1197 -0.0957,0.35536 -0.30888,0.64911 -1.16315,1.60269 -0.40985,0.4575 -0.76307,0.90306 -0.78492,0.99014 -0.0285,0.11354 0.005,0.21683 0.1181,0.36524 l 0.15783,0.20693 -0.17129,0.20518 c -0.0942,0.11284 -0.18989,0.20517 -0.21263,0.20517 -0.0227,0 -0.54067,-0.41772 -1.15096,-0.92827 z m -32.54868,-0.65718 c -0.22701,-0.27771 -0.4198,-0.5418 -0.42841,-0.58687 -0.009,-0.0451 0.0936,-0.15885 0.22726,-0.25286 0.23837,-0.16773 0.2482,-0.1691 0.52367,-0.0731 0.5682,0.19798 1.25628,-0.0115 1.70077,-0.51773 0.22939,-0.26126 0.25367,-0.4855 0.0722,-0.66696 -0.19858,-0.19858 -0.51094,-0.15764 -1.55382,0.20366 -0.76861,0.26628 -1.03669,0.33119 -1.37696,0.33337 -0.37777,0.002 -0.4484,-0.0178 -0.66675,-0.19146 -0.73885,-0.58747 -0.67004,-1.49071 0.17716,-2.32517 0.41681,-0.41054 1.04663,-0.80064 1.62649,-1.0074 0.35281,-0.1258 0.39688,-0.1604 0.39688,-0.31157 0,-0.11479 0.0611,-0.21519 0.18793,-0.30899 0.10336,-0.0764 0.21052,-0.13696 0.23812,-0.13454 0.0591,0.005 0.64214,0.71774 0.69063,0.84411 0.0184,0.0479 -0.0527,0.1592 -0.15862,0.24832 -0.17078,0.1437 -0.23241,0.15787 -0.55912,0.12852 -0.45338,-0.0407 -0.79262,0.0468 -1.1828,0.30529 -0.46908,0.31071 -0.61065,0.69435 -0.35177,0.95323 0.19224,0.19224 0.54609,0.13972 1.54838,-0.22984 0.67856,-0.25019 0.90535,-0.30551 1.27414,-0.31082 0.37995,-0.005 0.48458,0.0178 0.68347,0.15229 0.35949,0.24301 0.57058,0.60313 0.602,1.02702 0.0355,0.47879 -0.1987,0.95428 -0.69832,1.41786 -0.58943,0.54693 -1.05899,0.79315 -2.06767,1.08422 -0.0438,0.0126 -0.0794,0.12139 -0.0794,0.24254 0,0.16164 -0.0442,0.25439 -0.16731,0.35125 -0.092,0.0724 -0.18489,0.13138 -0.20637,0.1311 -0.0215,-2.6e-4 -0.2248,-0.22773 -0.45182,-0.50545 z m 5.68325,-1.3611 c -0.43952,-0.19401 -0.56874,-0.62127 -0.29845,-0.98685 0.19622,-0.2654 0.17563,-0.36368 -0.10632,-0.50752 -0.61303,-0.31274 -0.75669,-0.85777 -0.37713,-1.4308 l 0.20236,-0.3055 -0.1319,-0.10226 c -0.0726,-0.0562 -0.22042,-0.15074 -0.32861,-0.21 -0.41606,-0.22789 -0.76164,-1.04749 -0.6777,-1.60726 0.13512,-0.90104 1.35353,-1.7196 2.67025,-1.79393 0.56769,-0.032 0.57343,-0.0341 0.86314,-0.30275 0.43832,-0.40652 0.65692,-0.5017 1.15786,-0.50418 0.42182,-0.002 0.43946,0.004 0.65438,0.23889 0.18887,0.20609 0.21807,0.27879 0.2015,0.50165 -0.0253,0.33968 -0.25865,0.52732 -0.65587,0.52732 -0.3676,0 -0.44302,-0.0898 -0.44302,-0.52747 0,-0.33093 -0.0126,-0.36331 -0.1489,-0.38261 -0.31782,-0.045 -0.70834,0.23925 -0.70834,0.51559 0,0.0643 0.13855,0.25194 0.30789,0.41689 0.32995,0.32138 0.5811,0.85673 0.5811,1.23867 0,0.87153 -0.9927,1.80705 -2.14353,2.02006 -0.57041,0.10558 -0.65046,0.15041 -0.65046,0.36422 0,0.10303 0.0481,0.2354 0.10683,0.29416 0.15472,0.15472 0.47461,0.0899 1.44892,-0.29364 2.06871,-0.81436 2.66835,-0.84191 3.06087,-0.14063 0.33209,0.59331 0.23131,1.08211 -0.32861,1.59385 -0.58152,0.53147 -1.80601,1.07914 -3.01801,1.34985 -0.63193,0.14114 -0.97461,0.15062 -1.23825,0.0343 z m 2.17411,-0.80756 c 1.05573,-0.33741 1.60413,-0.68352 1.60413,-1.01241 0,-0.36461 -0.50399,-0.4065 -1.35507,-0.11262 -0.87251,0.30128 -1.33924,0.52686 -1.49207,0.72116 -0.16468,0.20936 -0.17274,0.33064 -0.0323,0.48586 0.15627,0.17268 0.55957,0.14675 1.27527,-0.082 z m -0.98349,-3.11643 c 0.20788,-0.24041 0.104,-0.86901 -0.2768,-1.67496 -0.255,-0.5397 -0.43945,-0.72549 -0.72029,-0.72549 -0.31826,0 -0.47928,0.17979 -0.47928,0.53515 0,0.32708 0.27485,1.14581 0.5319,1.58444 0.2737,0.46704 0.67922,0.58763 0.94447,0.28086 z m 20.05096,2.13307 c -0.54573,-0.14664 -0.88007,-0.39661 -1.09505,-0.81877 -0.0711,-0.1397 -0.15698,-0.27176 -0.19075,-0.29347 -0.0338,-0.0217 -0.19424,0.002 -0.3566,0.0523 -0.8135,0.25294 -2.07083,-0.1602 -2.44826,-0.80447 -0.25264,-0.43124 -0.0448,-1.21518 0.40034,-1.51014 0.26513,-0.17568 0.89536,-0.19315 1.72098,-0.0477 1.06151,0.18699 1.41816,0.0909 1.61952,-0.43638 0.14688,-0.38459 0.0877,-0.67787 -0.19337,-0.95898 -0.35603,-0.35604 -1.11761,-0.4786 -1.15934,-0.18658 -0.0104,0.0729 0.0253,0.16927 0.0794,0.21415 0.1546,0.1283 0.12353,0.4911 -0.0575,0.67218 -0.26408,0.26407 -0.84804,0.17373 -1.20878,-0.18701 -0.12441,-0.1244 -0.15936,-0.22405 -0.15936,-0.45434 0,-0.24924 0.0326,-0.32758 0.21021,-0.5052 0.41749,-0.41749 1.2189,-0.44932 2.24074,-0.089 1.07302,0.37835 1.70877,0.77952 1.89705,1.19706 0.17527,0.38867 0.10024,0.77759 -0.379,1.96456 -0.45385,1.12407 -0.48534,1.33434 -0.21406,1.42916 0.25029,0.0875 0.36503,0.0107 0.51181,-0.34249 0.11333,-0.27271 0.15251,-0.31375 0.26667,-0.27938 0.22702,0.0683 0.23895,0.12189 0.10617,0.4765 -0.22614,0.60402 -0.67776,1.01794 -1.09743,1.00584 -0.0797,-0.002 -0.30169,-0.0463 -0.49332,-0.0978 z m -1.28416,-1.7063 c 0.21204,-0.17842 0.4753,-0.73526 0.44574,-0.94282 -0.0184,-0.12927 -0.0503,-0.13728 -0.49592,-0.12458 -0.87531,0.0249 -1.24906,0.29815 -1.08557,0.79354 0.14109,0.42751 0.77227,0.5797 1.13575,0.27386 z m -13.92493,-0.37143 c -0.53737,-0.21027 -0.83848,-0.70343 -0.77204,-1.26444 0.0687,-0.57992 0.37662,-0.81552 1.59754,-1.2223 0.82933,-0.2763 1.06927,-0.4129 1.17542,-0.66916 0.11345,-0.2739 0.0463,-0.73333 -0.13619,-0.93127 -0.31933,-0.34643 -0.88406,-0.43358 -1.3726,-0.21182 -0.33402,0.15161 -0.3579,0.32104 -0.0635,0.45062 0.40865,0.17987 0.456,0.66524 0.0868,0.89044 -0.41529,0.25335 -0.92593,0.23312 -1.20686,-0.0478 -0.13732,-0.13732 -0.16587,-0.2241 -0.16587,-0.50425 0,-0.28366 0.0301,-0.37265 0.18613,-0.55036 0.37174,-0.42339 1.03395,-0.67974 2.09632,-0.81153 0.66275,-0.0822 1.36906,-0.0383 1.71603,0.10667 0.53112,0.22192 0.6336,0.47403 0.8553,2.10423 0.082,0.6031 0.18426,1.13888 0.2272,1.19062 0.10154,0.12235 0.40569,0.12093 0.50801,-0.002 0.0535,-0.0644 0.0684,-0.20967 0.0448,-0.43762 -0.0351,-0.34018 -0.0346,-0.3413 0.16013,-0.38026 0.10744,-0.0215 0.20504,-0.0294 0.21689,-0.0175 0.0118,0.0119 0.0381,0.27636 0.0583,0.58781 0.0476,0.73273 -0.0465,0.93152 -0.56438,1.19329 -0.30079,0.15203 -0.44525,0.18376 -0.86476,0.18996 -0.47128,0.007 -0.5224,-0.006 -0.79567,-0.19839 -0.35933,-0.25327 -0.45245,-0.25591 -0.69804,-0.0197 -0.52162,0.50161 -1.69727,0.78676 -2.28903,0.5552 z m 1.81447,-0.86855 c 0.12483,-0.0347 0.29628,-0.13686 0.381,-0.22707 0.13428,-0.14299 0.15264,-0.21832 0.14315,-0.58747 -0.0124,-0.48165 -0.10183,-0.7727 -0.23747,-0.7727 -0.15695,0 -0.88619,0.53577 -1.04082,0.76468 -0.10159,0.15039 -0.13405,0.2653 -0.10642,0.37673 0.051,0.20582 0.2622,0.43189 0.43511,0.46581 0.0742,0.0146 0.14927,0.0302 0.16673,0.0348 0.0175,0.005 0.13389,-0.0201 0.25872,-0.0548 z m 6.18653,0.86329 c -0.69198,-0.17147 -1.09069,-0.49477 -1.23183,-0.99886 -0.067,-0.23941 -0.0524,-0.46553 0.10629,-1.64252 0.11512,-0.85389 0.16329,-1.4065 0.12867,-1.47602 -0.0304,-0.0611 -0.12344,-0.11112 -0.20667,-0.11112 -0.25447,0 -0.35225,-0.0682 -0.35134,-0.24492 0.002,-0.35966 0.0558,-0.4325 0.32826,-0.44317 0.52743,-0.0207 0.94963,-0.41211 1.27828,-1.18516 l 0.16198,-0.381 0.46353,0.02 c 0.25494,0.011 0.47535,0.0318 0.4898,0.0463 0.0144,0.0144 -0.0246,0.3964 -0.0867,0.84877 -0.0621,0.45238 -0.0975,0.86286 -0.0785,0.91217 0.0237,0.0617 0.24324,0.11441 0.70491,0.16913 l 0.67051,0.0795 -0.0387,0.29559 c -0.0213,0.16257 -0.0452,0.30382 -0.0533,0.31389 -0.008,0.0101 -0.29693,-0.0247 -0.64193,-0.0772 -0.59334,-0.0904 -0.63253,-0.0893 -0.72454,0.0192 -0.0653,0.077 -0.1556,0.56146 -0.2748,1.47421 -0.1881,1.44037 -0.17962,1.62988 0.0791,1.76834 0.44627,0.23884 0.7589,-0.11907 0.87026,-0.99626 0.039,-0.30693 0.0555,-0.33331 0.20876,-0.33251 0.0915,5.1e-4 0.23338,0.0188 0.31519,0.0407 0.13666,0.0366 0.14554,0.0636 0.10925,0.33251 -0.079,0.58534 -0.29426,1.14074 -0.5184,1.33754 -0.361,0.31696 -1.0079,0.40442 -1.70809,0.23092 z m -59.07594,28.18516 v -51.97469 h 55.37197 55.37198 v 51.97469 51.9747 H 155.91417 100.5422 Z m 57.62622,36.54558 c 3.83612,-0.26314 7.14663,-0.95525 10.59387,-2.21479 6.86865,-2.50965 13.05278,-7.1809 17.53695,-13.24673 2.12725,-2.87759 3.945,-6.24209 5.2158,-9.65407 0.1561,-0.4191 0.32275,-0.80153 0.37032,-0.84984 0.0732,-0.0744 0.60647,-0.0771 3.47303,-0.0178 1.86258,0.0385 5.47249,0.078 8.02201,0.0878 4.59448,0.0177 4.63565,0.0167 4.65175,-0.10915 0.0117,-0.0918 -0.83878,-1.01615 -3.06664,-3.3329 -2.39672,-2.49234 -3.07874,-3.23681 -3.06425,-3.34482 0.0178,-0.13257 0.49615,-0.64806 3.76174,-4.05374 2.22131,-2.3166 2.25765,-2.35565 2.25765,-2.4263 0,-0.0369 -0.0643,-0.0844 -0.14288,-0.10545 -0.0786,-0.0211 -2.02067,-0.0387 -4.31576,-0.0392 -4.06015,-8.4e-4 -4.17466,-0.004 -4.23862,-0.12369 -0.0419,-0.0782 -0.0657,-0.96168 -0.0657,-2.43205 0,-1.71139 -0.0197,-2.32895 -0.0762,-2.38542 -0.0568,-0.0568 -0.73487,-0.0762 -2.65922,-0.0762 -2.08655,0 -2.59665,-0.0164 -2.65392,-0.0854 -0.0793,-0.0956 -0.0739,-0.0689 -0.2977,-1.47032 -0.42684,-2.67307 -1.29525,-5.76518 -2.34515,-8.35024 -3.62216,-8.91842 -10.31904,-16.18247 -18.73304,-20.31958 -1.5173,-0.74605 -2.14748,-1.01502 -3.96875,-1.69395 -1.99013,-0.74187 -5.51188,-1.59505 -7.52475,-1.82293 -0.17462,-0.0198 -0.67469,-0.0797 -1.11125,-0.13318 -1.96701,-0.24094 -5.73712,-0.22663 -7.90574,0.03 -4.04588,0.47879 -7.21374,1.32952 -10.82675,2.90753 -9.30949,4.06599 -16.66228,11.79955 -20.47955,21.54011 -0.40951,1.04497 -1.15414,3.33411 -1.3579,4.17448 -0.0318,0.13132 -0.11654,0.46736 -0.18822,0.74676 -0.16918,0.65946 -0.40835,1.82806 -0.57833,2.82575 -0.24007,1.40909 -0.2543,1.4772 -0.32694,1.56473 -0.058,0.0699 -0.52282,0.0863 -2.44664,0.0863 h -2.37505 l -0.0619,0.16288 c -0.0352,0.0926 -0.0624,0.99053 -0.0629,2.07963 -5.7e-4,1.09602 -0.0267,1.95752 -0.0612,2.01198 -0.0525,0.0831 -0.78017,0.0998 -5.68106,0.13108 -3.09149,0.0197 -5.64164,0.0566 -5.667,0.082 -0.0793,0.0793 0.11718,0.32976 0.83968,1.07045 0.713,0.73094 1.09842,1.13226 3.55453,3.70107 0.76792,0.80316 1.61768,1.69094 1.88835,1.97283 0.32652,0.34007 0.49212,0.56235 0.49212,0.66057 0,0.13175 -0.24508,0.41027 -1.3976,1.58823 -0.0178,0.0182 -0.67401,0.70458 -1.45825,1.52531 -0.78424,0.82074 -1.74554,1.82086 -2.13622,2.2225 -0.8055,0.82809 -1.04043,1.099 -1.04043,1.19979 0,0.0754 16.78547,0.10672 16.98105,0.0317 0.14655,-0.0562 0.12275,-0.20994 -0.0424,-0.27411 -0.0786,-0.0305 -0.4572,-0.20417 -0.84137,-0.38585 -0.88253,-0.41737 -0.901,-0.42476 -1.5875,-0.63521 -0.63849,-0.19573 -2.38567,-0.97296 -2.82575,-1.25703 -0.15716,-0.10144 -0.36763,-0.23436 -0.46771,-0.29537 -0.16912,-0.1031 -0.17456,-0.11833 -0.0772,-0.21578 0.0932,-0.0933 0.38156,-0.10692 2.60967,-0.12349 1.62069,-0.0121 2.59293,0.005 2.75431,0.0485 0.27304,0.0735 0.46624,0.32434 0.54568,0.7084 0.0244,0.11782 0.0846,0.33665 0.13376,0.48631 0.0492,0.14965 0.0892,0.40682 0.0889,0.5715 -6.3e-4,0.35761 0.16066,1.08523 0.32209,1.45297 0.0639,0.14551 0.30312,0.73944 0.53166,1.31985 2.02337,5.13869 4.84608,9.46668 8.70353,13.3449 1.61278,1.62147 2.79523,2.65172 4.41325,3.84521 5.96043,4.39654 12.69437,6.83901 20.16124,7.31266 0.72362,0.0459 3.48785,0.0335 4.2545,-0.0191 z m -3.96875,-2.51608 c -2.08253,-0.11693 -4.82482,-0.53528 -6.60399,-1.00747 -1.9695,-0.5227 -2.89273,-0.82365 -4.45846,-1.45331 -3.63678,-1.46256 -7.04237,-3.57249 -10.08304,-6.24697 -1.00235,-0.88163 -2.89048,-2.80912 -3.69819,-3.77528 -2.74504,-3.28352 -4.85129,-6.88175 -6.34134,-10.8333 -0.20691,-0.54872 -0.47202,-1.14055 -0.58914,-1.31518 -0.11712,-0.17462 -0.30752,-0.61168 -0.42312,-0.97125 l -0.21018,-0.65374 0.13988,-0.14 c 0.13209,-0.13222 0.20243,-0.14103 1.26536,-0.1585 0.98032,-0.0161 1.15415,-0.004 1.34774,0.0952 0.35392,0.18113 0.65161,0.91158 0.75802,1.85999 0.0626,0.55822 0.0904,0.63788 0.73051,2.0955 0.43655,0.99408 0.86631,1.85946 1.49791,3.01625 1.2352,2.26229 3.28486,4.99736 5.29874,7.07064 1.26627,1.30361 3.21155,2.98291 4.40671,3.80416 0.19654,0.13505 0.50023,0.34521 0.67485,0.46703 2.42634,1.69253 5.94097,3.38769 8.69729,4.19484 2.25017,0.65893 3.96752,1.00599 6.12995,1.2388 1.60276,0.17256 5.07815,0.15627 6.6675,-0.0312 4.03296,-0.47581 7.39727,-1.47243 10.87749,-3.22224 3.26148,-1.63983 5.81526,-3.50199 8.52366,-6.21528 2.74804,-2.753 4.7004,-5.4832 6.43842,-9.00355 0.86446,-1.75095 1.33842,-2.93752 1.33842,-3.35075 0,-0.17848 0.0856,-0.59072 0.1946,-0.93748 0.23484,-0.74689 0.24589,-0.76901 0.46585,-0.93323 0.16125,-0.12039 0.26363,-0.13018 1.36033,-0.13006 1.60577,1.9e-4 1.61081,0.004 1.31207,0.93921 -0.16564,0.51863 -0.31255,0.82144 -0.57329,1.18163 -0.086,0.11878 -0.18656,0.32824 -0.22351,0.46546 -0.14201,0.52734 -0.98986,2.54871 -1.57862,3.76357 -4.20821,8.68324 -11.56983,15.28976 -20.45192,18.35412 -3.48179,1.20123 -6.85914,1.78287 -10.63625,1.83174 -1.01282,0.0131 -2.02723,0.0134 -2.25425,6.3e-4 z m 1.905,-6.03308 c -0.61118,-0.0478 -1.14696,-0.10061 -1.19062,-0.11733 -0.0437,-0.0167 -0.0794,-0.13129 -0.0794,-0.25462 0,-0.26534 -0.0648,-0.27816 -0.34103,-0.0675 -0.35716,0.27242 -0.67177,0.37079 -1.18297,0.36991 -0.86194,-0.002 -1.45511,-0.33745 -1.78733,-1.01228 -0.17248,-0.35034 -0.20477,-0.49444 -0.22964,-1.02467 -0.0159,-0.33935 0.003,-0.78614 0.0413,-0.99287 0.0387,-0.20673 0.0552,-0.39097 0.0368,-0.40942 -0.0184,-0.0184 -0.11564,0.015 -0.216,0.0743 -0.22569,0.13332 -0.7104,0.13986 -0.95592,0.0129 -0.26222,-0.1356 -0.3817,-0.33796 -0.3817,-0.64644 0,-0.22335 0.0373,-0.3048 0.22168,-0.48386 0.12192,-0.1184 0.20288,-0.23408 0.17991,-0.25705 -0.0816,-0.0816 -0.37283,-0.0395 -0.57368,0.083 -0.34588,0.2109 -0.51339,0.54923 -0.7505,1.51582 -0.31571,1.28701 -0.30166,1.3872 0.2103,1.49964 0.24976,0.0549 0.26413,0.12147 0.13419,0.62216 -0.0527,0.20298 -0.0872,0.23757 -0.23397,0.2344 -0.0947,-0.002 -0.85798,-0.1524 -1.69618,-0.33412 -1.48028,-0.32091 -1.52454,-0.33498 -1.54276,-0.49046 -0.0103,-0.088 0.0185,-0.27345 0.0641,-0.41201 0.0706,-0.2146 0.111,-0.25342 0.27276,-0.26198 0.10445,-0.006 0.2389,-0.0127 0.29879,-0.0159 0.16314,-0.009 0.20827,-0.13392 0.50306,-1.39536 0.29613,-1.26715 0.29446,-1.30344 -0.0674,-1.46626 -0.20294,-0.0913 -0.20693,-0.10079 -0.16755,-0.39765 0.0522,-0.39363 0.0929,-0.49306 0.20193,-0.49306 0.14666,0 2.20354,0.44372 2.35795,0.50868 0.095,0.04 0.14288,0.11425 0.14288,0.22183 0,0.15737 0.005,0.15922 0.18091,0.0682 0.58256,-0.30126 1.28879,-0.25552 1.70562,0.11047 0.2451,0.21519 0.39947,0.51334 0.39947,0.77153 0,0.2195 0.055,0.20333 0.34054,-0.10012 0.13491,-0.14337 0.40215,-0.33249 0.59386,-0.42026 0.30563,-0.13992 0.41229,-0.15608 0.86596,-0.13117 0.56362,0.0309 0.88392,0.15613 1.27256,0.49736 0.12042,0.10573 0.23295,0.16958 0.25006,0.14189 0.0557,-0.0902 0.12278,-1.08497 0.0836,-1.24089 -0.0435,-0.17314 -0.27748,-0.30052 -0.55212,-0.30052 -0.18641,0 -0.18751,-0.002 -0.18751,-0.37323 0,-0.22457 0.0322,-0.39992 0.0808,-0.44026 0.0903,-0.0749 2.70522,0.0891 2.79631,0.17538 0.0282,0.0268 -0.0361,1.14968 -0.14287,2.49539 -0.21674,2.73052 -0.23099,3.12792 -0.11484,3.20309 0.0437,0.0282 0.17938,0.0807 0.30162,0.11654 0.18524,0.0543 0.22548,0.0982 0.24166,0.26325 0.027,0.27569 -0.0729,0.62225 -0.18217,0.63218 -0.0502,0.005 -0.5913,-0.0308 -1.20249,-0.0787 z m -1.63035,-1.22958 c 0.26684,-0.31713 0.3286,-0.59997 0.3286,-1.50493 0,-0.74661 -0.0141,-0.85549 -0.1313,-1.01258 -0.17637,-0.23644 -0.41129,-0.29242 -0.67393,-0.16059 -0.30119,0.15117 -0.44202,0.56602 -0.48123,1.4176 -0.0362,0.78695 0.002,1.05568 0.18149,1.28419 0.19175,0.24377 0.56079,0.23251 0.77637,-0.0237 z m 3.40935,1.01624 c -0.0392,-0.0733 -0.0626,-0.26627 -0.052,-0.42892 0.0182,-0.27943 0.0315,-0.29883 0.24151,-0.35175 0.40912,-0.10309 0.40881,-0.1018 0.32167,-1.32834 -0.11179,-1.57352 -0.13609,-1.63934 -0.60529,-1.63934 -0.20685,0 -0.21035,-0.005 -0.2538,-0.35261 -0.0279,-0.22321 -0.0189,-0.38288 0.0244,-0.43511 0.0768,-0.0925 2.57631,-0.28165 2.65693,-0.20103 0.0254,0.0254 0.10707,0.8297 0.1815,1.78733 0.0864,1.11137 0.16394,1.77565 0.21447,1.83653 0.0435,0.0525 0.16996,0.0954 0.28093,0.0954 0.28502,0 0.35418,0.10078 0.35418,0.51613 v 0.36373 l -0.33338,0.0359 c -0.18335,0.0197 -0.77628,0.0649 -1.31762,0.10022 -0.54134,0.0354 -1.1323,0.0802 -1.31324,0.0997 -0.28894,0.0311 -0.33766,0.0192 -0.40027,-0.0978 z m 4.77251,-0.40965 c -0.89666,-0.2927 -1.50959,-1.32865 -1.58314,-2.67574 -0.0675,-1.23588 0.46287,-2.02854 1.50524,-2.24975 0.43677,-0.0927 0.77517,-0.0547 1.22113,0.13718 0.17057,0.0734 0.32676,0.11678 0.34708,0.0965 0.0432,-0.0432 -0.1509,-0.95323 -0.24937,-1.16935 -0.0783,-0.17194 -0.28222,-0.23771 -0.58471,-0.18862 -0.25366,0.0412 -0.30559,-0.0106 -0.40138,-0.40037 -0.0535,-0.21777 -0.052,-0.30325 0.007,-0.3593 0.0803,-0.0769 2.35578,-0.5932 2.61438,-0.5932 0.13779,0 0.16149,0.055 0.32125,0.74612 0.70537,3.05137 1.1056,4.67241 1.16926,4.73588 0.041,0.0408 0.20833,0.0742 0.37191,0.0742 h 0.29743 l 0.0884,0.3297 c 0.0486,0.18134 0.0734,0.36862 0.0552,0.41619 -0.032,0.0834 -2.06064,0.55795 -2.37913,0.5565 -0.10185,-6.3e-4 -0.1534,-0.0497 -0.18341,-0.17526 -0.023,-0.096 -0.0541,-0.19665 -0.0693,-0.22357 -0.0151,-0.0269 -0.20407,0.1328 -0.41984,0.35493 -0.28703,0.29548 -0.47696,0.4324 -0.70771,0.51015 -0.44999,0.15165 -1.08678,0.18655 -1.41985,0.0778 z m 1.92265,-1.30938 c 0.37064,-0.36394 -0.0105,-2.31448 -0.51717,-2.64645 -0.24761,-0.16224 -0.52302,-0.13111 -0.70427,0.0796 -0.14816,0.17225 -0.15487,0.2134 -0.12336,0.75671 0.0852,1.46865 0.76317,2.38124 1.3448,1.81013 z m 4.03534,-0.13543 c -0.52313,-0.14866 -0.9525,-0.74608 -0.9525,-1.32531 0,-0.51224 0.24509,-0.78139 1.52807,-1.67803 0.51179,-0.35768 0.66158,-0.5805 0.60238,-0.89605 -0.0486,-0.25912 -0.34402,-0.56774 -0.59065,-0.61706 -0.22883,-0.0458 -0.57407,0.0301 -0.83282,0.1829 -0.24534,0.14493 -0.25384,0.2532 -0.0244,0.31047 0.23623,0.059 0.37834,0.19787 0.46211,0.4517 0.14239,0.43145 -0.2142,0.83485 -0.87223,0.98674 -0.28024,0.0647 -0.35033,0.0589 -0.56435,-0.0463 -0.50032,-0.24607 -0.63268,-0.87111 -0.29881,-1.41113 0.33961,-0.54931 1.28626,-1.11778 2.39164,-1.4362 1.00609,-0.28982 1.62682,-0.17914 1.9927,0.35532 0.10405,0.15198 0.38338,0.70495 0.62075,1.22883 0.45763,1.01003 0.5927,1.21629 0.75553,1.15381 0.12609,-0.0484 0.12783,-0.21572 0.005,-0.50902 -0.0524,-0.12538 -0.0953,-0.26741 -0.0953,-0.31562 0,-0.10319 0.46321,-0.30084 0.56198,-0.2398 0.13904,0.0859 0.40634,0.80983 0.43594,1.18063 0.026,0.3259 0.009,0.41277 -0.11948,0.60076 -0.2052,0.30084 -0.57895,0.54775 -1.05976,0.7001 -0.48791,0.15461 -0.61507,0.15782 -1.00522,0.0254 -0.29627,-0.10059 -0.3038,-0.0999 -0.39909,0.0388 -0.43346,0.63074 -1.1407,1.11879 -1.83062,1.26325 -0.38684,0.081 -0.41212,0.0809 -0.71125,-0.004 z m 1.84638,-1.63501 c 0.1182,-0.1182 0.18539,-0.25081 0.18499,-0.36513 -8.2e-4,-0.24141 -0.29554,-0.86395 -0.39352,-0.83129 -0.15225,0.0507 -0.68535,0.81597 -0.68535,0.98375 0,0.42155 0.55335,0.5532 0.89388,0.21267 z m -27.43687,1.35225 c -0.30321,-0.0583 -0.98601,-0.29617 -1.2965,-0.45166 -0.43619,-0.21846 -0.95777,-0.73272 -1.1578,-1.14155 -0.35841,-0.73257 -0.24215,-1.74364 0.29154,-2.53532 l 0.25067,-0.37185 -0.17108,-0.0163 c -0.79737,-0.0758 -1.46748,-0.33703 -2.53869,-0.98973 -0.32428,-0.1976 -0.63231,-0.35926 -0.6845,-0.35926 -0.0914,0 -0.86313,1.12099 -0.9759,1.4176 -0.0728,0.19148 0.0101,0.32779 0.31745,0.5218 0.1374,0.0867 0.24981,0.19055 0.24981,0.23071 0,0.13846 -0.39446,0.68739 -0.49395,0.68739 -0.10756,0 -3.42092,-1.94483 -3.48215,-2.0439 -0.0449,-0.0726 0.39475,-0.7501 0.48678,-0.7501 0.036,0 0.17741,0.0571 0.31432,0.127 0.34462,0.17581 0.47686,0.15982 0.6567,-0.0794 0.31401,-0.41763 2.25188,-3.44951 2.29367,-3.58852 0.0442,-0.14687 0.0463,-0.1442 -0.42805,-0.53608 l -0.17643,-0.14577 0.22574,-0.33337 c 0.12416,-0.18336 0.2708,-0.33337 0.32587,-0.33337 0.0551,0 1.08737,0.59293 2.29401,1.31762 2.85194,1.71285 3.24899,2.08049 3.2526,3.01163 0.001,0.28673 -0.0419,0.4436 -0.21023,0.7665 l -0.21161,0.40599 h 0.70374 c 0.63646,0 0.75534,0.0191 1.24349,0.20237 0.64014,0.24028 1.09847,0.56782 1.37941,0.98583 0.25668,0.38188 0.33428,0.65859 0.33473,1.19346 3.8e-4,0.45046 -0.2068,1.24775 -0.33661,1.29533 -0.0417,0.0153 -0.72668,-0.21197 -1.52223,-0.50501 -1.61942,-0.59652 -1.58947,-0.5954 -1.66943,-0.0622 -0.0851,0.56764 0.1497,0.95544 0.6736,1.11241 0.33833,0.10136 0.66341,0.0209 0.94564,-0.23408 0.13312,-0.12026 0.28143,-0.21842 0.32958,-0.21813 0.16701,0.001 1.02988,0.34993 1.0555,0.4268 0.0403,0.12095 -0.58897,0.70966 -0.91067,0.85196 -0.2874,0.12714 -1.03082,0.20445 -1.35902,0.14135 z m 1.23145,-3.04508 c 0.0615,-0.16025 0.0446,-0.65857 -0.0268,-0.79207 -0.16394,-0.30633 -0.70987,-0.40362 -1.02114,-0.18198 -0.19767,0.14076 -0.39715,0.46522 -0.35808,0.58244 0.0271,0.0815 1.02741,0.47586 1.23144,0.48558 0.0748,0.004 0.15342,-0.0387 0.17462,-0.094 z m -4.50587,-3.13711 c 0.42601,-0.20801 0.73176,-0.78516 0.5998,-1.13224 -0.0356,-0.0936 -0.11274,-0.22464 -0.17142,-0.29116 -0.13686,-0.15513 -0.8327,-0.60954 -0.93338,-0.60954 -0.0927,0 -0.99219,1.34389 -1.00546,1.50217 -0.0117,0.13919 0.57024,0.5022 0.93744,0.58481 0.14283,0.0321 0.2721,0.0615 0.28727,0.0652 0.0152,0.004 0.14375,-0.0499 0.28575,-0.11926 z m 34.29649,3.39763 c -0.23332,-0.36599 -0.40581,-0.69519 -0.38334,-0.73157 0.0225,-0.0364 0.18474,-0.14831 0.36056,-0.24873 l 0.31968,-0.18257 0.34978,0.16013 c 0.43204,0.19779 0.81875,0.17104 1.29801,-0.0898 0.3819,-0.20785 0.5277,-0.39994 0.47201,-0.62184 -0.0564,-0.22487 -0.28907,-0.26107 -0.85657,-0.13331 -1.8417,0.41463 -2.11526,0.43683 -2.5526,0.20715 -0.3831,-0.20119 -0.69261,-0.7098 -0.69261,-1.13813 0,-0.56465 0.31552,-1.09943 0.91417,-1.54945 0.5829,-0.43818 1.00867,-0.63199 1.86395,-0.84851 0.22222,-0.0563 0.26987,-0.0949 0.26987,-0.21859 0,-0.19633 0.52955,-0.53021 0.66398,-0.41864 0.12223,0.10144 0.73302,1.04338 0.73302,1.13043 0,0.0402 -0.13008,0.14925 -0.28905,0.24242 -0.27982,0.16398 -0.30125,0.16681 -0.67003,0.0885 -0.30353,-0.0644 -0.45158,-0.065 -0.7284,-0.003 -0.40262,0.0901 -0.87445,0.41852 -0.90502,0.62995 -0.0558,0.38628 0.35572,0.42082 1.55075,0.13015 1.36806,-0.33276 1.90183,-0.22792 2.35934,0.46343 0.24419,0.36899 0.27558,0.94674 0.0742,1.36542 -0.36,0.74843 -1.47139,1.45811 -2.66162,1.6996 -0.31466,0.0638 -0.35223,0.0891 -0.38121,0.25637 -0.034,0.19642 -0.37117,0.47607 -0.57397,0.47607 -0.0713,0 -0.26189,-0.23715 -0.53491,-0.66543 z m -15.43598,-0.24939 c -0.1065,-0.0464 -0.27081,-0.17606 -0.36512,-0.28814 -0.14115,-0.16775 -0.17148,-0.26601 -0.17148,-0.55564 0,-0.32195 0.0202,-0.37209 0.2383,-0.59014 0.31564,-0.31564 0.65266,-0.37952 1.05749,-0.20044 0.71012,0.31412 0.73237,1.23748 0.0387,1.6061 -0.2581,0.13715 -0.5261,0.14664 -0.79789,0.0283 z m -4.6006,-4.60716 c -0.57767,-0.0542 -1.46903,-0.19842 -2.19074,-0.35454 -4.72573,-1.02224 -8.91225,-3.74181 -11.90622,-7.73429 -0.15305,-0.20409 -0.3765,-0.43782 -0.49657,-0.51941 -0.21417,-0.14553 -0.63341,-0.66931 -0.78662,-0.98277 -0.0427,-0.0873 -0.14557,-0.26958 -0.22866,-0.40503 l -0.15108,-0.24629 0.13473,-0.13471 0.13472,-0.13472 h 17.42721 17.42721 l 0.13464,0.13465 c 0.12641,0.12641 0.12865,0.14625 0.0366,0.32419 -0.0539,0.10424 -0.21372,0.36373 -0.35513,0.57664 -0.14142,0.2129 -0.25712,0.41359 -0.25712,0.44597 0,0.0324 -0.15975,0.19535 -0.35499,0.36215 -0.19525,0.16681 -0.62912,0.64891 -0.96416,1.07134 -1.11403,1.40464 -2.78151,2.98033 -4.32144,4.08356 -2.01883,1.44633 -4.62815,2.60139 -7.06626,3.12798 -1.59199,0.34384 -2.04957,0.39251 -3.8984,0.41463 -0.9779,0.0117 -2.02088,-0.002 -2.31775,-0.0294 z m 38.07925,-8.40038 c 0.0206,-0.35799 0.0765,-0.74724 0.12434,-0.86501 0.0478,-0.11777 0.0869,-0.28535 0.0869,-0.3724 0,-0.0871 0.0759,-0.29777 0.16871,-0.46827 0.13332,-0.24494 0.21659,-0.32328 0.39687,-0.37336 0.31385,-0.0872 4.85353,-0.0838 5.16916,0.004 0.29732,0.0826 0.29059,0.21027 -0.0197,0.37526 -0.26692,0.1419 -0.99874,0.4768 -1.17097,0.53587 -0.0678,0.0233 -0.5107,0.20906 -0.98425,0.41293 -0.47357,0.20386 -1.04676,0.42019 -1.27377,0.48074 -0.54669,0.14581 -0.65696,0.18615 -1.59274,0.58271 -0.43943,0.18622 -0.83115,0.33858 -0.87047,0.33858 -0.0508,0 -0.0606,-0.18864 -0.034,-0.65087 z m -51.63649,-4.76814 c -1.09623,-0.36314 -1.89921,-1.4593 -2.32254,-3.17052 -0.18599,-0.75187 -0.23106,-2.16735 -0.0953,-2.99295 0.35007,-2.12865 1.4584,-3.61263 2.76815,-3.70634 2.65174,-0.18973 4.14863,4.78765 2.45908,8.17683 -0.63785,1.27952 -1.85087,2.0105 -2.80939,1.69298 z m 1.36553,-0.58801 c 0.68818,-0.37456 1.30597,-1.26925 1.61661,-2.34121 0.43327,-1.49513 0.34512,-3.23926 -0.2348,-4.64575 -0.17484,-0.42404 -0.58149,-1.05483 -0.81939,-1.27102 -0.4898,-0.4451 -1.30099,-0.74654 -1.61903,-0.60163 l -0.15017,0.0684 v 4.40942 c 0,2.42517 0.0187,4.45817 0.0416,4.51776 0.0661,0.17219 0.74443,0.093 1.1652,-0.13599 z m 5.18447,0.5614 c -0.0164,-0.0265 -0.33021,-0.83371 -0.69744,-1.79387 -0.9088,-2.37613 -1.41712,-3.66886 -1.87685,-4.77311 -0.21338,-0.51252 -0.38796,-0.97686 -0.38796,-1.03187 0,-0.0876 0.1535,-0.10002 1.23601,-0.10002 1.11227,0 1.24195,0.0111 1.29524,0.11113 0.0326,0.0611 0.34973,0.89821 0.7048,1.8602 0.35507,0.962 0.67232,1.79067 0.70501,1.8415 0.0518,0.0805 0.0675,0.0802 0.12243,-0.003 0.0655,-0.0991 0.98502,-2.89758 1.18908,-3.61896 0.12312,-0.43523 0.27024,-0.55849 0.39295,-0.3292 0.053,0.099 -0.18454,0.87215 -1.19594,3.8932 -0.69411,2.07334 -1.2822,3.81971 -1.30685,3.88083 -0.0469,0.11618 -0.12973,0.14511 -0.18048,0.063 z m 4.38876,-0.0786 c -0.49033,-0.14764 -1.04757,-0.69557 -1.36621,-1.3434 -1.04646,-2.12752 -0.50475,-5.34561 1.0541,-6.26199 0.37853,-0.22253 1.03828,-0.24513 1.43835,-0.0493 0.63599,0.31134 1.23548,1.2034 1.49276,2.22126 0.1143,0.4522 0.24752,1.73096 0.18365,1.76282 -0.014,0.007 -0.63978,0.0284 -1.39067,0.0476 l -1.36524,0.0349 -0.0186,1.27 c -0.0207,1.41137 0.002,1.63394 0.18088,1.81329 0.16294,0.16294 0.40229,0.15501 0.7915,-0.0262 0.40857,-0.19027 0.81333,-0.64355 1.16203,-1.30133 0.15184,-0.28644 0.31575,-0.51748 0.36711,-0.51748 0.27659,0 0.14429,0.5977 -0.27035,1.22142 -0.58944,0.88664 -1.51947,1.35112 -2.25931,1.12835 z m 0.97166,-4.13 c 0.11539,-0.0618 0.12283,-0.1457 0.12283,-1.38753 0,-1.64761 -0.0587,-1.84874 -0.53975,-1.84874 -0.26142,0 -0.40162,0.10842 -0.47312,0.36588 -0.0958,0.34493 -0.0877,2.76265 0.01,2.85992 0.0934,0.0934 0.71177,0.10076 0.88047,0.0105 z m 13.04372,4.07444 c -0.89793,-0.4079 -1.43147,-1.88594 -1.17291,-3.24927 0.28108,-1.48215 1.56082,-2.26663 2.72126,-1.66815 0.21002,0.10832 0.39791,0.18088 0.41755,0.16124 0.0695,-0.0695 0.0288,-1.88705 -0.0473,-2.11003 -0.1523,-0.44661 -0.73438,-0.56575 -1.31853,-0.26987 -0.2786,0.14111 -0.39842,0.25687 -0.62437,0.60325 -0.29411,0.45085 -0.45384,0.53294 -0.57963,0.2979 -0.1051,-0.19638 -0.0123,-0.48811 0.24638,-0.77442 0.51798,-0.57334 1.12857,-0.78153 2.13686,-0.72857 1.32786,0.0697 2.06732,0.59499 2.24935,1.59775 0.0403,0.22222 0.0699,1.34236 0.0722,2.7305 0.003,2.16825 0.0221,2.54119 0.15583,3.13158 l 0.0468,0.20638 h -1.15094 -1.15093 v -0.24342 c 0,-0.13388 -0.0178,-0.26121 -0.0395,-0.28296 -0.0217,-0.0217 -0.17177,0.0718 -0.33338,0.20789 -0.58098,0.48925 -1.12417,0.61938 -1.62868,0.3902 z m 1.69438,-0.95285 0.30964,-0.30964 -0.0171,-1.44952 -0.0171,-1.44951 -0.254,-0.17492 c -0.3294,-0.22685 -0.53835,-0.27368 -0.6985,-0.15655 -0.12085,0.0884 -0.12791,0.17766 -0.14574,1.84315 -0.0125,1.16706 0.004,1.79298 0.0499,1.87845 0.12716,0.2376 0.4234,0.16805 0.77291,-0.18146 z m 4.33947,0.98664 c -0.4049,-0.13416 -0.61684,-0.26673 -0.89656,-0.56079 -0.29543,-0.31057 -0.3662,-0.50292 -0.24569,-0.66774 0.0757,-0.10359 0.11158,-0.0827 0.4334,0.25219 0.51889,0.54004 1.14796,0.7719 1.40281,0.51705 0.19498,-0.19498 0.11167,-0.41674 -0.74796,-1.99085 -0.78645,-1.44007 -1.02046,-1.97395 -1.12275,-2.56134 -0.24369,-1.39934 0.69122,-2.77752 1.88417,-2.77752 0.37155,0 0.89961,0.20876 1.21849,0.48171 0.2159,0.1848 0.26484,0.26721 0.26484,0.44598 0,0.34272 -0.15342,0.34408 -0.48838,0.004 -0.48892,-0.49591 -1.09013,-0.62296 -1.2283,-0.25956 -0.10849,0.28537 0.0567,0.68303 0.80859,1.94588 0.40059,0.67288 0.79462,1.38057 0.8756,1.57266 0.58866,1.39614 0.21907,2.97579 -0.82043,3.50661 -0.31974,0.16327 -0.98396,0.20865 -1.33783,0.0914 z m -16.55083,-0.18488 c -0.0125,-0.0436 -0.008,-2.15106 0.009,-4.68312 l 0.0317,-4.60374 h 1.016 1.016 l 0.0163,4.68312 0.0163,4.68312 h -1.04136 c -0.77867,0 -1.04709,-0.02 -1.06404,-0.0794 z m 3.11559,0.0318 c -0.0435,-0.41524 -0.0211,-9.21227 0.0236,-9.27099 0.0437,-0.0574 0.32897,-0.0794 1.03014,-0.0794 0.82564,0 0.97541,0.0149 1.00822,0.10044 0.0212,0.0552 0.0385,0.66961 0.0385,1.36525 0,0.69564 0.0174,1.2648 0.0387,1.2648 0.0213,0 0.19989,-0.14755 0.39688,-0.32789 0.19698,-0.18034 0.53812,-0.41227 0.75807,-0.51541 0.33723,-0.15812 0.45828,-0.1833 0.77214,-0.1606 0.46011,0.0333 0.82189,0.25443 1.07869,0.65936 0.32021,0.50492 0.35068,0.85652 0.35176,4.05929 l 9.9e-4,2.921 h -1.04775 -1.04775 l -0.0332,-3.302 c -0.0182,-1.8161 -0.0397,-3.30814 -0.0476,-3.31564 -0.23066,-0.21783 -0.57608,-0.0978 -0.95389,0.33139 l -0.26705,0.30338 v 3.00731 3.00731 h -1.04775 c -0.57626,0 -1.05,-0.0214 -1.05274,-0.0476 z m -36.92306,-12.42432 c -0.12007,-0.0878 -0.12021,-0.10221 -0.008,-0.77787 0.36006,-2.15874 0.76676,-3.83956 1.38806,-5.73666 3.2046,-9.78505 10.28316,-17.77609 19.36359,-21.85969 1.58274,-0.71178 3.28889,-1.34334 4.59518,-1.70098 0.2794,-0.0765 0.63658,-0.178 0.79375,-0.22557 0.79585,-0.2409 3.15164,-0.70077 4.34974,-0.84911 0.31433,-0.0389 0.82868,-0.10453 1.143,-0.14582 0.77511,-0.10181 5.70484,-0.10155 6.477,3.2e-4 0.31433,0.0415 0.82868,0.10562 1.143,0.14254 2.48739,0.29217 5.88578,1.17532 8.255,2.14526 0.38417,0.15728 0.84137,0.3415 1.016,0.40938 0.54132,0.21042 2.56355,1.22385 3.39725,1.70249 1.19868,0.68821 3.2143,2.05265 4.31799,2.92301 6.22647,4.91013 10.63391,11.66745 12.75376,19.55363 0.29061,1.08112 0.73475,3.26416 0.8094,3.97838 0.0368,0.35168 0.0278,0.39758 -0.0895,0.46037 -0.16022,0.0857 -1.9698,0.0947 -2.19039,0.0108 -0.12409,-0.0472 -0.16382,-0.11997 -0.19925,-0.36512 -0.10682,-0.73908 -0.51035,-2.60917 -0.76696,-3.55436 -1.62161,-5.97288 -4.56983,-11.08827 -8.88528,-15.41665 -3.234,-3.24369 -6.99569,-5.7084 -11.25219,-7.3726 -1.91924,-0.75038 -4.01746,-1.3363 -6.11809,-1.70845 -1.85228,-0.32815 -2.65307,-0.38467 -5.42925,-0.38318 -2.38277,0.001 -2.78881,0.0167 -3.80999,0.14475 -0.62865,0.0788 -1.18948,0.15756 -1.24629,0.17498 -0.0568,0.0174 -0.34255,0.0732 -0.635,0.12395 -0.29244,0.0507 -0.78889,0.15063 -1.10321,0.22196 -0.31433,0.0713 -0.77153,0.1703 -1.016,0.21992 -0.24448,0.0496 -0.57309,0.13266 -0.73025,0.18452 -0.15717,0.0519 -0.73016,0.23732 -1.27333,0.41214 -4.65486,1.4982 -8.92406,4.07554 -12.57034,7.58877 -5.24531,5.05393 -8.70309,11.63792 -10.00306,19.04692 -0.0972,0.55397 -0.12678,0.63046 -0.264,0.68263 -0.26096,0.0992 -2.06947,0.0741 -2.21283,-0.0307 z m 15.61331,0.0445 c -0.0756,-0.0143 -0.15078,-0.0606 -0.16699,-0.10284 -0.0162,-0.0423 0.0483,-0.34777 0.14332,-0.67891 1.56252,-5.44407 5.42857,-10.10564 10.48155,-12.63835 2.90666,-1.45691 6.09063,-2.16836 9.26936,-2.07122 1.63907,0.0501 2.46315,0.15663 4.09575,0.52953 6.75301,1.54241 12.396,6.8679 14.58933,13.76846 0.32399,1.01931 0.33476,1.08893 0.1812,1.17112 -0.0914,0.0489 -5.65306,0.0657 -19.29219,0.0585 -10.5401,-0.006 -19.22571,-0.0219 -19.30133,-0.0362 z m -3.71739,-1.97612 c -0.40465,-0.14379 -0.44854,-0.19672 -0.36404,-0.43911 0.10584,-0.30361 0.0541,-0.5427 -0.13729,-0.63396 -0.16985,-0.081 -3.75841,-1.2457 -4.07596,-1.32287 -0.22462,-0.0546 -0.37692,0.0752 -0.48987,0.4174 -0.0481,0.14571 -0.12399,0.25308 -0.1789,0.25308 -0.17291,0 -0.78742,-0.21691 -0.81451,-0.28751 -0.0376,-0.0979 1.46816,-4.47801 1.724,-5.0149 0.41068,-0.86187 1.01735,-1.28726 1.74208,-1.22155 0.7793,0.0707 1.33179,0.58196 1.43431,1.32733 0.0449,0.32633 0.11196,0.38356 0.21779,0.18581 0.11093,-0.20727 0.47135,-0.38667 0.77682,-0.38667 0.15541,0 0.49493,0.0575 0.75451,0.12787 1.05796,0.28665 1.08175,0.28993 1.17548,0.16174 0.12622,-0.17261 0.0144,-0.32339 -0.33768,-0.45545 -0.37056,-0.13897 -0.40191,-0.18126 -0.31927,-0.43066 0.11035,-0.33304 0.17841,-0.3718 0.47133,-0.26846 0.7003,0.24708 1.18499,0.66454 1.26466,1.08923 0.10589,0.56445 -0.15413,1.38852 -0.5917,1.8752 -0.463,0.51496 -0.90014,0.55525 -2.0718,0.19096 -1.00376,-0.3121 -1.12295,-0.2723 -1.43586,0.47935 -0.16755,0.40247 -0.18759,0.49911 -0.11738,0.56599 0.12519,0.11926 1.55934,0.54838 1.75652,0.52559 0.1346,-0.0156 0.20245,-0.0884 0.3284,-0.35276 0.0919,-0.19288 0.20078,-0.33325 0.25857,-0.33338 0.12539,-2.5e-4 0.70733,0.1906 0.77947,0.25568 0.0296,0.0267 -0.18154,0.73012 -0.46916,1.56318 -0.28763,0.83307 -0.57877,1.67897 -0.64699,1.87979 -0.13815,0.40665 -0.1628,0.41634 -0.63353,0.24908 z m -2.22748,-4.52337 c 0.28638,-0.83257 0.12645,-1.2542 -0.54143,-1.42745 -0.33327,-0.0864 -0.42204,-0.0798 -0.69634,0.0518 -0.16566,0.0795 -0.50731,0.73118 -0.56289,1.07369 l -0.0375,0.23076 0.78524,0.25772 c 0.43188,0.14174 0.81382,0.24975 0.84874,0.24001 0.0349,-0.01 0.12678,-0.20167 0.20413,-0.42653 z m 49.34147,4.06247 c -0.95833,-0.22586 -1.71713,-1.11158 -2.0143,-2.3512 -0.1531,-0.63865 -0.1614,-1.04431 -0.0318,-1.55114 0.18839,-0.73647 0.72658,-1.30462 1.53899,-1.62467 0.29728,-0.11712 0.49316,-0.14424 1.06294,-0.14718 0.66347,-0.003 0.71767,0.006 1.08054,0.19618 0.99536,0.52057 1.68113,1.88442 1.60539,3.19281 -0.0513,0.88566 -0.53338,1.64008 -1.27879,2.00109 -0.65379,0.31665 -1.3794,0.42166 -1.96302,0.28411 z m 0.71463,-2.1293 c 1.05865,-0.27108 1.4605,-0.54635 1.4605,-1.00048 0,-0.22832 -0.28553,-0.53602 -0.54206,-0.58415 -0.45644,-0.0856 -2.00595,0.32661 -2.42283,0.64458 -0.40528,0.30912 -0.30713,0.92157 0.17403,1.08586 0.26123,0.0892 0.52588,0.0602 1.33036,-0.14581 z m -4.1617,-4.27655 c -0.36536,-0.55759 -0.6643,-1.04008 -0.6643,-1.0722 0,-0.0321 0.0714,-0.1052 0.15875,-0.16241 0.0873,-0.0572 0.15875,-0.12927 0.15875,-0.16014 0,-0.0309 -0.1591,-0.10617 -0.35355,-0.16734 -0.75507,-0.2375 -1.36225,-1.05809 -1.3595,-1.83736 0.002,-0.70721 0.38153,-1.27424 1.22847,-1.83778 0.74062,-0.49278 1.274,-0.68483 1.91333,-0.68889 0.39649,-0.003 0.58171,0.029 0.84377,0.14345 0.6658,0.29084 1.13647,1.07817 1.07354,1.79582 -0.0176,0.20081 -0.011,0.37808 0.0146,0.39393 0.0256,0.0159 0.28021,-0.11529 0.5657,-0.29144 0.58154,-0.35883 0.67736,-0.51973 0.49682,-0.83429 -0.15715,-0.27383 -0.13476,-0.33135 0.21685,-0.55697 0.3154,-0.20239 0.32442,-0.20417 0.43607,-0.086 0.19191,0.20312 1.40086,2.0941 1.40086,2.19116 0,0.0516 -1.03782,0.72606 -2.39352,1.55555 -1.31644,0.80547 -2.42312,1.51139 -2.45928,1.56873 -0.0465,0.0737 -0.042,0.16528 0.0152,0.31224 0.0445,0.11439 0.0868,0.23442 0.0939,0.26673 0.013,0.059 -0.57611,0.48101 -0.67139,0.48101 -0.0279,0 -0.34974,-0.45621 -0.7151,-1.0138 z m 0.72653,-2.19514 c 0.50293,-0.23412 1.19143,-0.70868 1.37241,-0.94596 0.34765,-0.45579 0.095,-0.9754 -0.43965,-0.90409 -0.5264,0.0702 -1.65026,0.74624 -1.97714,1.18929 -0.19048,0.25819 -0.19706,0.43481 -0.0243,0.65439 0.17763,0.22582 0.59199,0.22829 1.06872,0.006 z m -41.70666,0.31445 c -0.76983,-0.20702 -1.54822,-0.83628 -1.88637,-1.52496 -0.16188,-0.32969 -0.18403,-0.44397 -0.18403,-0.94959 0,-0.54028 0.0149,-0.60509 0.24867,-1.0795 0.28825,-0.58504 0.91172,-1.25547 1.3728,-1.4762 0.64537,-0.30896 1.37552,-0.3061 2.04945,0.008 0.36622,0.1707 0.86933,0.52154 0.86933,0.60622 0,0.0301 -0.41328,0.55958 -0.91841,1.17663 -0.50513,0.61706 -0.93621,1.15072 -0.95797,1.18592 -0.10724,0.17352 0.47312,0.49952 0.89213,0.50113 0.31365,0.001 0.57975,-0.16621 0.77387,-0.48688 0.17994,-0.29724 0.1857,-0.55131 0.0199,-0.87656 -0.0699,-0.137 -0.127,-0.27512 -0.127,-0.30693 0,-0.0953 0.65117,-0.86782 0.7315,-0.86782 0.1025,0 0.24267,0.17024 0.41826,0.508 0.11909,0.22909 0.14889,0.38707 0.15027,0.79664 0.002,0.46321 -0.0203,0.55546 -0.23408,0.98841 -0.4386,0.88819 -1.23732,1.59031 -2.04766,1.80001 -0.45932,0.11886 -0.72127,0.11829 -1.17064,-0.003 z m 0.23128,-3.0792 c 0.21817,-0.25935 0.39677,-0.50769 0.39687,-0.55186 3.2e-4,-0.1374 -0.39647,-0.33196 -0.67755,-0.33221 -0.46834,-4.4e-4 -0.81596,0.43563 -0.66462,0.83369 0.0843,0.22175 0.39167,0.57294 0.47713,0.54517 0.0393,-0.0128 0.25,-0.23543 0.46817,-0.49479 z m 36.56446,-0.41219 c -0.6484,-0.54361 -1.1789,-1.02571 -1.1789,-1.07133 0,-0.0456 0.10979,-0.20668 0.24399,-0.3579 l 0.24399,-0.27494 0.21341,0.10336 c 0.14845,0.0719 0.24769,0.085 0.32603,0.0431 0.13214,-0.0707 1.4451,-1.52832 1.55795,-1.72958 0.23886,-0.426 -0.0633,-0.9313 -0.55687,-0.9313 -0.15953,0 -0.35308,0.053 -0.48017,0.13158 -0.28655,0.1771 -1.54833,1.61615 -1.54833,1.76586 0,0.0654 0.0429,0.15458 0.0953,0.19806 0.0524,0.0435 0.0949,0.12555 0.0946,0.1824 -9.5e-4,0.14764 -0.50146,0.65406 -0.59194,0.59896 -0.17729,-0.10797 -2.39187,-2.00026 -2.39187,-2.04379 0,-0.0922 0.45493,-0.57907 0.54107,-0.57907 0.0477,0 0.1845,0.0577 0.30406,0.12826 0.11957,0.0705 0.26341,0.11061 0.31966,0.089 0.10219,-0.0392 1.51278,-1.57574 1.70727,-1.85969 0.11964,-0.17468 0.0912,-0.29193 -0.12872,-0.53008 l -0.15905,-0.17225 0.23611,-0.28813 c 0.12985,-0.15847 0.28419,-0.28763 0.34297,-0.28702 0.1424,0.001 1.94319,1.507 1.96704,1.64453 0.0103,0.0592 -0.0397,0.16048 -0.11112,0.22508 -0.23315,0.211 -0.166,0.28828 0.25053,0.28828 0.69469,0 1.49137,0.4422 1.89527,1.05195 0.4918,0.74249 0.35322,1.11237 -0.97139,2.59257 -0.7691,0.85945 -0.84838,1.02017 -0.60571,1.22796 0.0699,0.0598 0.127,0.15439 0.127,0.2102 0,0.1102 -0.42012,0.63231 -0.5088,0.63231 -0.0299,0 -0.5849,-0.44477 -1.23329,-0.98838 z m -32.61006,-0.70836 c -0.28013,-0.33948 -0.50933,-0.65249 -0.50933,-0.69559 0,-0.13579 0.58767,-0.54144 0.72943,-0.50351 0.59303,0.15869 0.77443,0.17821 1.02291,0.11006 0.30399,-0.0834 0.7383,-0.38184 0.88792,-0.6102 0.0972,-0.14832 0.0972,-0.17162 8.3e-4,-0.31876 -0.14747,-0.22506 -0.30793,-0.20633 -1.37705,0.16079 -1.39868,0.48029 -1.82754,0.49408 -2.29375,0.0737 -0.8672,-0.78185 -0.55591,-1.97633 0.7597,-2.91513 0.22948,-0.16375 0.64842,-0.39072 0.93099,-0.50438 0.43974,-0.17687 0.5167,-0.23034 0.53414,-0.37107 0.0184,-0.14823 0.44411,-0.5397 0.58696,-0.5397 0.0685,0 0.88414,1.03239 0.88457,1.11959 1.9e-4,0.0395 -0.10644,0.15329 -0.23696,0.25284 -0.21691,0.16544 -0.28378,0.18127 -0.77787,0.18406 -0.42739,0.002 -0.59501,0.0318 -0.80058,0.14029 -0.2774,0.14642 -0.66074,0.53909 -0.66074,0.67684 0,0.11999 0.21116,0.29338 0.3573,0.29338 0.0688,0 0.5808,-0.15716 1.13783,-0.34925 1.24366,-0.42887 1.61122,-0.45756 2.07704,-0.16215 0.43975,0.27889 0.64205,0.62434 0.67157,1.14685 0.0187,0.33097 -0.005,0.49352 -0.106,0.72144 -0.29124,0.65839 -1.28453,1.45441 -2.19516,1.75919 -0.48363,0.16186 -0.51499,0.1835 -0.53362,0.36805 -0.0136,0.13438 -0.0931,0.25646 -0.2526,0.38797 -0.12804,0.10554 -0.25426,0.19189 -0.28049,0.19189 -0.0262,0 -0.2769,-0.27775 -0.55704,-0.61724 z m 5.67138,-1.3553 c -0.26461,-0.13098 -0.46571,-0.42235 -0.46571,-0.67475 0,-0.0659 0.0572,-0.23195 0.127,-0.36895 0.0699,-0.13701 0.127,-0.26892 0.127,-0.29314 0,-0.0242 -0.12584,-0.11779 -0.27965,-0.20793 -0.28945,-0.16963 -0.54585,-0.57102 -0.54585,-0.85452 0,-0.18052 0.16392,-0.57343 0.30405,-0.72877 0.10336,-0.1146 0.10112,-0.12562 -0.0457,-0.22458 -0.83158,-0.56035 -1.17243,-1.5434 -0.80713,-2.32785 0.37295,-0.8009 1.64593,-1.49096 2.75044,-1.49096 0.37679,0 0.40934,-0.0125 0.64077,-0.24625 0.87295,-0.88173 2.29194,-0.71059 2.32001,0.2798 0.0166,0.58468 -0.85667,0.97598 -1.26555,0.56709 -0.13568,-0.13568 -0.15796,-0.20875 -0.13999,-0.45917 0.0169,-0.23474 -3.8e-4,-0.30207 -0.0813,-0.31791 -0.10534,-0.0206 -0.50059,0.27117 -0.50059,0.36956 0,0.0302 0.13878,0.19362 0.3084,0.36324 0.34868,0.34868 0.5806,0.87114 0.5806,1.30796 0,0.88521 -0.82137,1.76271 -1.96415,2.09837 -0.1897,0.0557 -0.42194,0.10131 -0.5161,0.10131 -0.2226,0 -0.36409,0.16121 -0.26939,0.30695 0.11177,0.17201 0.4246,0.10836 1.44789,-0.2946 1.35939,-0.53531 1.60055,-0.60652 2.06375,-0.60937 0.51779,-0.003 0.77006,0.12419 1.01696,0.51352 0.57962,0.91397 0.1351,1.75867 -1.3069,2.48343 -0.51336,0.25801 -1.55981,0.6184 -2.1491,0.74012 -0.65017,0.1343 -1.03117,0.1251 -1.34975,-0.0326 z m 2.33416,-1.05129 c 0.38055,-0.12642 0.84208,-0.31959 1.02564,-0.42927 0.28376,-0.16957 0.33374,-0.22786 0.33374,-0.38929 0,-0.17319 -0.0207,-0.19157 -0.23572,-0.20942 -0.24966,-0.0207 -1.07796,0.23703 -1.79371,0.55816 -0.45514,0.20421 -0.67287,0.44711 -0.54206,0.60473 0.12492,0.15051 0.46775,0.11236 1.21211,-0.13491 z m -1.08028,-3.08169 c 0.10215,-0.19087 0.0336,-0.59746 -0.20066,-1.19031 -0.2257,-0.57115 -0.51248,-0.95917 -0.70893,-0.95917 -0.20168,0 -0.3655,0.18443 -0.3655,0.41147 0,0.21578 0.23105,0.94845 0.41208,1.30675 0.26542,0.52531 0.6972,0.74108 0.86301,0.43126 z m 19.97693,2.36105 c -0.51207,-0.16362 -0.82094,-0.39619 -1.02562,-0.77224 -0.14683,-0.26977 -0.19589,-0.31389 -0.31028,-0.27903 -0.0747,0.0228 -0.32559,0.0575 -0.55744,0.0771 -0.98198,0.0831 -1.98747,-0.4073 -2.25129,-1.09809 -0.0934,-0.24457 -0.0978,-0.3319 -0.0318,-0.62702 0.13654,-0.61009 0.50929,-0.99664 1.03608,-1.07441 0.25842,-0.0382 0.42811,-0.0224 1.70915,0.15916 0.70525,0.0999 0.90575,0.0314 1.08356,-0.37062 0.15339,-0.34677 0.11001,-0.57922 -0.15676,-0.84004 -0.18715,-0.18297 -0.51111,-0.31919 -0.76102,-0.31998 -0.13692,-4.5e-4 -0.1388,0.0517 -0.0111,0.30772 0.21002,0.42097 -0.13564,0.89842 -0.65041,0.89842 -0.74614,0 -1.26585,-0.52949 -1.10522,-1.12601 0.25063,-0.93076 1.64051,-1.02972 3.35256,-0.23871 0.711,0.3285 1.06142,0.61257 1.2624,1.02336 0.16066,0.32838 0.1669,0.37209 0.0969,0.67953 -0.0411,0.18072 -0.26532,0.80786 -0.49821,1.39365 -0.37811,0.95109 -0.41314,1.07536 -0.32729,1.16121 0.14517,0.14518 0.27167,0.0571 0.4191,-0.29187 0.0766,-0.18137 0.17415,-0.31516 0.22973,-0.31516 0.1414,0 0.44499,0.12439 0.49293,0.20197 0.0541,0.0876 -0.22768,0.77759 -0.44224,1.08269 -0.20321,0.28896 -0.59528,0.49456 -0.93426,0.48992 -0.13741,-0.002 -0.41621,-0.0566 -0.61955,-0.12155 z m -1.23517,-1.9047 c 0.17357,-0.13653 0.45815,-0.73113 0.39716,-0.82983 -0.043,-0.0695 -0.64525,-0.0218 -0.96939,0.0769 -0.27709,0.0843 -0.4182,0.29939 -0.33683,0.51341 0.13382,0.35195 0.60749,0.47678 0.90906,0.23956 z m -13.91786,-0.14869 c -0.52135,-0.16621 -0.87664,-0.79074 -0.81497,-1.43256 0.0587,-0.61074 0.40216,-0.8784 1.69163,-1.31823 0.9638,-0.32875 1.18874,-0.51218 1.13347,-0.92427 -0.0442,-0.32976 -0.19857,-0.55128 -0.46027,-0.66063 -0.27827,-0.11627 -0.54694,-0.11397 -0.83685,0.007 l -0.23242,0.0971 0.23208,0.1913 c 0.59957,0.49421 0.17463,1.25958 -0.70183,1.26408 -0.51757,0.003 -0.83098,-0.22541 -0.93013,-0.67685 -0.15162,-0.69028 0.54488,-1.32146 1.7527,-1.58834 0.59893,-0.13233 2.01776,-0.14951 2.35992,-0.0286 0.36384,0.12861 0.65502,0.4168 0.7661,0.75824 0.0534,0.16427 0.16735,0.80933 0.25311,1.43347 0.0858,0.62415 0.18373,1.16261 0.2177,1.19658 0.034,0.034 0.11482,0.0512 0.17964,0.0382 0.10024,-0.02 0.11787,-0.0849 0.11787,-0.43371 v -0.41017 l 0.27292,-0.0582 c 0.39537,-0.0843 0.42558,-0.0286 0.42558,0.78476 0,0.81574 -0.065,0.94959 -0.5921,1.21938 -0.6359,0.32548 -1.62008,0.28775 -1.94808,-0.0747 -0.15267,-0.1687 -0.21256,-0.16066 -0.44129,0.0593 -0.53506,0.51452 -1.72609,0.78565 -2.44478,0.55654 z m 2.12714,-1.2795 c 0.12656,-0.12656 0.1557,-0.21909 0.155,-0.49213 -0.001,-0.38963 -0.0522,-0.62201 -0.13703,-0.62201 -0.10642,0 -0.80969,0.50717 -0.87658,0.63216 -0.18607,0.34766 0.007,0.63784 0.42395,0.63784 0.21134,0 0.31651,-0.0377 0.43466,-0.15586 z m 5.91823,1.29342 c -0.37667,-0.0888 -0.83505,-0.34747 -1.05054,-0.5929 -0.34447,-0.39233 -0.36713,-0.61141 -0.19754,-1.90991 0.0821,-0.62865 0.15011,-1.26896 0.15112,-1.42292 0.002,-0.27959 10e-4,-0.28002 -0.28391,-0.34925 l -0.28575,-0.0693 0.0226,-0.3175 c 0.0313,-0.43991 0.0972,-0.53975 0.35652,-0.53975 0.57703,0 1.00972,-0.41855 1.3381,-1.29433 l 0.11626,-0.31009 0.54205,0.0417 c 0.29813,0.0229 0.569,0.0686 0.60194,0.10155 0.0375,0.0375 0.0263,0.33943 -0.03,0.80817 -0.13269,1.10417 -0.19563,0.98454 0.57683,1.0963 l 0.66675,0.0965 -0.0177,0.37969 c -0.01,0.20883 -0.0433,0.4052 -0.0744,0.43637 -0.0332,0.0332 -0.32258,0.0241 -0.6997,-0.0221 -0.35366,-0.0433 -0.65931,-0.0625 -0.67923,-0.0426 -0.0316,0.0316 -0.39713,2.54616 -0.40078,2.75695 -0.002,0.10626 0.23036,0.33337 0.34084,0.33337 0.22834,0 0.36126,-0.22312 0.47288,-0.79375 l 0.1118,-0.5715 0.21491,-0.0208 c 0.1182,-0.0114 0.31364,-0.002 0.43431,0.0204 l 0.2194,0.0412 -0.0385,0.41209 c -0.087,0.9311 -0.47078,1.57814 -1.02678,1.73088 -0.29649,0.0815 -1.03883,0.0823 -1.38139,0.002 z"
         inkscape:export-filename="/var/www/luciene/avivah-church.github.io/assets/img/ovelha-perdida.png"
         inkscape:export-xdpi="37"
         inkscape:export-ydpi="37" />
    </g>
  </g>
</svg>
